# This file uses centimeters as units for non-parametric coordinates.

mtllib Piso_LP.mtl
g default
v 50.000000 0.000000 -50.000000
v 100.000000 0.000000 -50.000000
v 50.000000 0.000000 -100.000000
v 100.000000 0.000000 -100.000000
v 0.000000 0.000000 0.000000
v 50.000000 0.000000 -0.000000
v -0.000000 0.000000 -50.000000
v 100.000000 0.000000 -0.000000
v -0.000000 0.000000 -100.000000
v 50.000000 2.976534 -50.000000
v 0.000000 2.678910 0.000000
v 0.297624 2.976534 -0.297624
v 50.000000 2.976534 -0.297624
v 50.000000 2.678910 -0.000000
v -0.000000 2.678910 -50.000000
v 0.297624 2.976534 -50.000000
v 99.702377 2.976534 -0.297624
v 100.000000 2.678910 -0.000000
v 99.702377 2.976534 -50.000000
v 100.000000 2.678910 -50.000000
v 50.000000 2.678910 -100.000000
v 50.000000 2.976534 -99.702377
v 0.297624 2.976534 -99.702377
v -0.000000 2.678910 -100.000000
v 99.702377 2.976534 -99.702377
v 100.000000 2.678910 -100.000000
v 50.000000 -0.000000 100.000000
v 100.000000 -0.000000 100.000000
v 50.000000 -0.000000 50.000000
v 100.000000 -0.000000 50.000000
v 50.000000 -0.000000 0.000000
v 100.000000 -0.000000 0.000000
v -0.000000 -0.000000 50.000000
v -0.000000 -0.000000 100.000000
v 0.000000 0.000000 0.000000
v 50.000000 2.976534 50.000000
v -0.000000 2.678910 100.000000
v 0.297624 2.976534 99.702377
v 50.000000 2.976534 99.702377
v 50.000000 2.678910 100.000000
v -0.000000 2.678910 50.000000
v 0.297624 2.976534 50.000000
v 99.702377 2.976534 99.702377
v 100.000000 2.678910 100.000000
v 99.702377 2.976534 50.000000
v 100.000000 2.678910 50.000000
v 50.000000 2.678910 0.000000
v 50.000000 2.976534 0.297624
v 0.297624 2.976534 0.297624
v 0.000000 2.678910 0.000000
v 99.702377 2.976534 0.297624
v 100.000000 2.678910 0.000000
v -100.000000 0.000000 0.000000
v -50.000000 0.000000 0.000000
v 0.000000 0.000000 0.000000
v -100.000000 0.000000 -50.000000
v -50.000000 0.000000 -50.000000
v 0.000000 0.000000 -50.000000
v -100.000000 0.000000 -100.000000
v -50.000000 0.000000 -100.000000
v 0.000000 0.000000 -100.000000
v -50.000000 2.976534 -50.000000
v -100.000000 2.678910 0.000000
v -99.702377 2.976534 -0.297624
v -50.000000 2.976534 -0.297624
v -50.000000 2.678910 0.000000
v -100.000000 2.678910 -50.000000
v -99.702377 2.976534 -50.000000
v -0.297624 2.976534 -0.297624
v 0.000000 2.678910 0.000000
v -0.297624 2.976534 -50.000000
v 0.000000 2.678910 -50.000000
v -50.000000 2.678910 -100.000000
v -50.000000 2.976534 -99.702377
v -99.702377 2.976534 -99.702377
v -100.000000 2.678910 -100.000000
v -0.297624 2.976534 -99.702377
v 0.000000 2.678910 -100.000000
v -100.000000 -0.000000 100.000000
v -50.000000 -0.000000 100.000000
v 0.000000 -0.000000 100.000000
v -100.000000 -0.000000 50.000000
v -50.000000 -0.000000 50.000000
v 0.000000 -0.000000 50.000000
v -50.000000 -0.000000 0.000000
v -100.000000 -0.000000 0.000000
v 0.000000 0.000000 0.000000
v -50.000000 2.976534 50.000000
v -100.000000 2.678910 100.000000
v -99.702377 2.976534 99.702377
v -50.000000 2.976534 99.702377
v -50.000000 2.678910 100.000000
v -100.000000 2.678910 50.000000
v -99.702377 2.976534 50.000000
v -0.297624 2.976534 99.702377
v 0.000000 2.678910 100.000000
v -0.297624 2.976534 50.000000
v 0.000000 2.678910 50.000000
v -50.000000 2.678910 0.000000
v -50.000000 2.976534 0.297624
v -99.702377 2.976534 0.297624
v -100.000000 2.678910 0.000000
v -0.297624 2.976534 0.297624
v 0.000000 2.678910 0.000000
vt 0.750000 0.750000
vt 0.501488 0.998512
vt 0.501488 0.501488
vt 0.750000 0.501488
vt 0.998512 0.501488
vt 0.998512 0.750000
vt 0.501488 0.750000
vt 0.750000 0.750000
vt 0.998512 0.998512
vt 0.750000 0.998512
vt 0.750000 0.500000
vt 0.500000 0.500000
vt 0.500000 0.500000
vt 0.500000 0.750000
vt 1.000000 0.500000
vt 0.750000 0.500000
vt 1.000000 0.750000
vt 1.000000 0.500000
vt 0.500000 1.000000
vt 0.750000 1.000000
vt 0.500000 0.750000
vt 0.500000 1.000000
vt 1.000000 1.000000
vt 1.000000 0.750000
vt 0.750000 1.000000
vt 1.000000 1.000000
vt 0.500000 0.000000
vt 0.500000 0.250000
vt 0.750000 0.250000
vt 0.750000 0.000000
vt 1.000000 0.250000
vt 1.000000 0.000000
vt 0.500000 0.500000
vt 0.750000 0.500000
vt 1.000000 0.500000
vt 0.500000 0.000000
vt 0.501488 0.001488
vt 0.501488 0.250000
vt 0.500000 0.250000
vt 0.750000 0.000000
vt 0.750000 0.001488
vt 1.000000 0.000000
vt 0.998512 0.001488
vt 0.501488 0.498512
vt 0.500000 0.500000
vt 1.000000 0.250000
vt 0.998512 0.250000
vt 1.000000 0.500000
vt 0.998512 0.498512
vt 0.750000 0.500000
vt 0.750000 0.498512
vt 0.750000 0.250000
vt 0.000000 0.500000
vt 0.000000 0.750000
vt 0.250000 0.750000
vt 0.250000 0.500000
vt 0.500000 0.750000
vt 0.500000 0.500000
vt 0.000000 1.000000
vt 0.250000 1.000000
vt 0.500000 1.000000
vt 0.000000 0.500000
vt 0.001488 0.501488
vt 0.001488 0.750000
vt 0.000000 0.750000
vt 0.250000 0.500000
vt 0.250000 0.501488
vt 0.500000 0.500000
vt 0.498512 0.501488
vt 0.001488 0.998512
vt 0.000000 1.000000
vt 0.500000 0.750000
vt 0.498512 0.750000
vt 0.500000 1.000000
vt 0.498512 0.998512
vt 0.250000 1.000000
vt 0.250000 0.998512
vt 0.250000 0.750000
vt 0.000000 0.000000
vt 0.000000 0.250000
vt 0.250000 0.250000
vt 0.250000 0.000000
vt 0.500000 0.250000
vt 0.500000 0.000000
vt 0.000000 0.500000
vt 0.250000 0.500000
vt 0.500000 0.500000
vt 0.000000 0.000000
vt 0.001488 0.001488
vt 0.001488 0.250000
vt 0.000000 0.250000
vt 0.250000 0.000000
vt 0.250000 0.001488
vt 0.500000 0.000000
vt 0.498512 0.001488
vt 0.001488 0.498512
vt 0.000000 0.500000
vt 0.500000 0.250000
vt 0.498512 0.250000
vt 0.500000 0.500000
vt 0.498512 0.498512
vt 0.250000 0.500000
vt 0.250000 0.498512
vt 0.250000 0.250000
vn 0.000000 -1.000000 -0.000000
vn 0.000000 -1.000000 -0.000000
vn 0.000000 -1.000000 -0.000000
vn 0.000000 -1.000000 -0.000000
vn 0.000000 -1.000000 -0.000000
vn 0.000000 -1.000000 -0.000000
vn 0.000000 -1.000000 -0.000000
vn 0.000000 -1.000000 -0.000000
vn 0.000000 -1.000000 -0.000000
vn -0.707107 0.707107 -0.000000
vn -0.707107 0.707107 -0.000000
vn -0.707107 0.707107 -0.000000
vn -0.707107 0.707107 -0.000000
vn 0.000000 0.707107 0.707107
vn 0.000000 0.707107 0.707107
vn 0.000000 0.707107 0.707107
vn 0.000000 0.707107 0.707107
vn 0.000000 0.707107 0.707107
vn 0.000000 0.707107 0.707107
vn -0.707107 0.707107 -0.000000
vn -0.707107 0.707107 -0.000000
vn 0.707118 0.707096 0.000000
vn 0.707118 0.707096 0.000000
vn 0.707112 0.707101 0.000000
vn 0.707112 0.707101 0.000000
vn 0.707106 0.707107 0.000000
vn 0.707106 0.707107 0.000000
vn 0.000000 0.707106 -0.707108
vn 0.000000 0.707106 -0.707108
vn 0.000000 0.707106 -0.707108
vn 0.000000 0.707105 -0.707108
vn 0.000000 0.707106 -0.707108
vn 0.000000 0.707106 -0.707108
vn 0.000000 1.000000 0.000000
vn 0.000000 1.000000 0.000000
vn 0.000000 1.000000 0.000000
vn 0.000000 1.000000 0.000000
vn 0.000000 1.000000 0.000000
vn 0.000000 1.000000 0.000000
vn 0.000000 1.000000 0.000000
vn 0.000000 1.000000 0.000000
vn 0.000000 1.000000 0.000000
vn 0.000000 0.000000 1.000000
vn 0.000000 0.000000 1.000000
vn 0.000000 0.000000 1.000000
vn 0.000000 0.000000 1.000000
vn -1.000000 0.000000 0.000000
vn -1.000000 0.000000 0.000000
vn -1.000000 0.000000 0.000000
vn -1.000000 0.000000 0.000000
vn 0.000000 0.000000 1.000000
vn 0.000000 0.000000 1.000000
vn 1.000000 0.000000 0.000000
vn 1.000000 0.000000 0.000000
vn 1.000000 0.000000 0.000000
vn 1.000000 0.000000 0.000000
vn 0.000000 0.000000 -1.000000
vn 0.000000 0.000000 -1.000000
vn 0.000000 0.000000 -1.000000
vn 0.000000 0.000000 -1.000000
vn -1.000000 0.000000 0.000000
vn -1.000000 0.000000 0.000000
vn 1.000000 0.000000 0.000000
vn 1.000000 0.000000 0.000000
vn 0.000000 0.000000 -1.000000
vn 0.000000 0.000000 -1.000000
vn 0.000000 -1.000000 -0.000000
vn 0.000000 -1.000000 -0.000000
vn 0.000000 -1.000000 -0.000000
vn 0.000000 -1.000000 -0.000000
vn 0.000000 -1.000000 -0.000000
vn 0.000000 -1.000000 -0.000000
vn 0.000000 -1.000000 -0.000000
vn 0.000000 -1.000000 -0.000000
vn 0.000000 -1.000000 -0.000000
vn -0.707107 0.707107 0.000000
vn -0.707107 0.707107 0.000000
vn -0.707107 0.707107 0.000000
vn -0.707107 0.707107 0.000000
vn 0.000000 0.707106 0.707108
vn 0.000000 0.707106 0.707108
vn 0.000000 0.707106 0.707108
vn 0.000000 0.707106 0.707108
vn 0.000000 0.707105 0.707108
vn 0.000000 0.707106 0.707108
vn -0.707107 0.707107 0.000000
vn -0.707107 0.707107 0.000000
vn 0.707106 0.707107 0.000000
vn 0.707106 0.707107 0.000000
vn 0.707112 0.707101 0.000000
vn 0.707112 0.707101 0.000000
vn 0.707118 0.707096 0.000000
vn 0.707118 0.707096 0.000000
vn 0.000000 0.707107 -0.707107
vn 0.000000 0.707107 -0.707107
vn 0.000000 0.707107 -0.707107
vn 0.000000 0.707107 -0.707107
vn 0.000000 0.707107 -0.707107
vn 0.000000 0.707107 -0.707107
vn 0.000000 1.000000 0.000000
vn 0.000000 1.000000 0.000000
vn 0.000000 1.000000 0.000000
vn 0.000000 1.000000 0.000000
vn 0.000000 1.000000 0.000000
vn 0.000000 1.000000 0.000000
vn 0.000000 1.000000 0.000000
vn 0.000000 1.000000 0.000000
vn 0.000000 1.000000 0.000000
vn 0.000000 0.000000 1.000000
vn 0.000000 0.000000 1.000000
vn 0.000000 0.000000 1.000000
vn 0.000000 0.000000 1.000000
vn -1.000000 0.000000 -0.000000
vn -1.000000 0.000000 -0.000000
vn -1.000000 0.000000 -0.000000
vn -1.000000 0.000000 -0.000000
vn 0.000000 0.000000 1.000000
vn 0.000000 0.000000 1.000000
vn 1.000000 0.000000 0.000000
vn 1.000000 0.000000 0.000000
vn 1.000000 0.000000 0.000000
vn 1.000000 0.000000 0.000000
vn 0.000000 0.000000 -1.000000
vn 0.000000 0.000000 -1.000000
vn 0.000000 0.000000 -1.000000
vn 0.000000 0.000000 -1.000000
vn -1.000000 0.000000 -0.000000
vn -1.000000 0.000000 -0.000000
vn 1.000000 0.000000 0.000000
vn 1.000000 0.000000 0.000000
vn 0.000000 0.000000 -1.000000
vn 0.000000 0.000000 -1.000000
vn 0.000000 -1.000000 -0.000000
vn 0.000000 -1.000000 -0.000000
vn 0.000000 -1.000000 -0.000000
vn 0.000000 -1.000000 -0.000000
vn 0.000000 -1.000000 -0.000000
vn 0.000000 -1.000000 -0.000000
vn 0.000000 -1.000000 -0.000000
vn 0.000000 -1.000000 -0.000000
vn 0.000000 -1.000000 -0.000000
vn -0.707118 0.707096 0.000000
vn -0.707118 0.707096 0.000000
vn -0.707112 0.707101 0.000000
vn -0.707112 0.707101 0.000000
vn 0.000000 0.707107 0.707107
vn 0.000000 0.707107 0.707107
vn 0.000000 0.707107 0.707107
vn 0.000000 0.707107 0.707107
vn 0.000000 0.707107 0.707107
vn 0.000000 0.707107 0.707107
vn -0.707106 0.707107 0.000000
vn -0.707106 0.707107 0.000000
vn 0.707107 0.707107 0.000000
vn 0.707107 0.707107 0.000000
vn 0.707107 0.707107 0.000000
vn 0.707107 0.707107 0.000000
vn 0.707107 0.707107 0.000000
vn 0.707107 0.707107 0.000000
vn 0.000000 0.707106 -0.707108
vn 0.000000 0.707106 -0.707108
vn 0.000000 0.707106 -0.707108
vn 0.000000 0.707106 -0.707108
vn 0.000000 0.707105 -0.707108
vn 0.000000 0.707106 -0.707108
vn 0.000000 1.000000 0.000000
vn 0.000000 1.000000 0.000000
vn 0.000000 1.000000 0.000000
vn 0.000000 1.000000 0.000000
vn 0.000000 1.000000 0.000000
vn 0.000000 1.000000 0.000000
vn 0.000000 1.000000 0.000000
vn 0.000000 1.000000 0.000000
vn 0.000000 1.000000 0.000000
vn 0.000000 0.000000 1.000000
vn 0.000000 0.000000 1.000000
vn 0.000000 0.000000 1.000000
vn 0.000000 0.000000 1.000000
vn -1.000000 0.000000 0.000000
vn -1.000000 0.000000 0.000000
vn -1.000000 0.000000 0.000000
vn -1.000000 0.000000 0.000000
vn 0.000000 0.000000 1.000000
vn 0.000000 0.000000 1.000000
vn 1.000000 0.000000 0.000000
vn 1.000000 0.000000 0.000000
vn 1.000000 0.000000 0.000000
vn 1.000000 0.000000 0.000000
vn 0.000000 0.000000 -1.000000
vn 0.000000 0.000000 -1.000000
vn 0.000000 0.000000 -1.000000
vn 0.000000 0.000000 -1.000000
vn -1.000000 0.000000 0.000000
vn -1.000000 0.000000 0.000000
vn 1.000000 0.000000 0.000000
vn 1.000000 0.000000 0.000000
vn 0.000000 0.000000 -1.000000
vn 0.000000 0.000000 -1.000000
vn 0.000000 -1.000000 -0.000000
vn 0.000000 -1.000000 -0.000000
vn 0.000000 -1.000000 -0.000000
vn 0.000000 -1.000000 -0.000000
vn 0.000000 -1.000000 -0.000000
vn 0.000000 -1.000000 -0.000000
vn 0.000000 -1.000000 -0.000000
vn 0.000000 -1.000000 -0.000000
vn 0.000000 -1.000000 -0.000000
vn -0.707106 0.707107 0.000000
vn -0.707106 0.707107 0.000000
vn -0.707112 0.707101 0.000000
vn -0.707112 0.707101 0.000000
vn 0.000000 0.707106 0.707108
vn 0.000000 0.707105 0.707108
vn 0.000000 0.707106 0.707108
vn 0.000000 0.707106 0.707108
vn 0.000000 0.707106 0.707108
vn 0.000000 0.707106 0.707108
vn -0.707118 0.707096 0.000000
vn -0.707118 0.707096 0.000000
vn 0.707107 0.707107 0.000000
vn 0.707107 0.707107 0.000000
vn 0.707107 0.707107 0.000000
vn 0.707107 0.707107 0.000000
vn 0.707107 0.707107 0.000000
vn 0.707107 0.707107 0.000000
vn 0.000000 0.707107 -0.707107
vn 0.000000 0.707107 -0.707107
vn 0.000000 0.707107 -0.707107
vn 0.000000 0.707107 -0.707107
vn 0.000000 0.707107 -0.707107
vn 0.000000 0.707107 -0.707107
vn 0.000000 1.000000 0.000000
vn 0.000000 1.000000 0.000000
vn 0.000000 1.000000 0.000000
vn 0.000000 1.000000 0.000000
vn 0.000000 1.000000 0.000000
vn 0.000000 1.000000 0.000000
vn 0.000000 1.000000 0.000000
vn 0.000000 1.000000 0.000000
vn 0.000000 1.000000 0.000000
vn 0.000000 0.000000 1.000000
vn 0.000000 0.000000 1.000000
vn 0.000000 0.000000 1.000000
vn 0.000000 0.000000 1.000000
vn -1.000000 0.000000 0.000000
vn -1.000000 0.000000 0.000000
vn -1.000000 0.000000 0.000000
vn -1.000000 0.000000 0.000000
vn 0.000000 0.000000 1.000000
vn 0.000000 0.000000 1.000000
vn 1.000000 0.000000 -0.000000
vn 1.000000 0.000000 -0.000000
vn 1.000000 0.000000 -0.000000
vn 1.000000 0.000000 -0.000000
vn -0.000000 0.000000 -1.000000
vn -0.000000 0.000000 -1.000000
vn -0.000000 0.000000 -1.000000
vn -0.000000 0.000000 -1.000000
vn -1.000000 0.000000 0.000000
vn -1.000000 0.000000 0.000000
vn 1.000000 0.000000 -0.000000
vn 1.000000 0.000000 -0.000000
vn -0.000000 0.000000 -1.000000
vn -0.000000 0.000000 -1.000000
s 1
g polySurface76
usemtl initialShadingGroup
f 5/13/1 7/21/2 1/1/3 6/11/4
f 6/11/4 1/1/3 2/17/5 8/15/6
f 7/21/2 9/19/7 3/25/8 1/1/3
f 1/1/3 3/25/8 4/23/9 2/17/5
s 2
f 11/12/10 12/3/11 16/7/12 15/14/13
s 3
f 12/3/14 11/12/15 14/16/16 13/4/17
f 13/4/17 14/16/16 18/18/18 17/5/19
s 2
f 15/14/13 16/7/12 23/2/20 24/22/21
s 4
f 17/5/22 18/18/23 20/24/24 19/6/25
f 19/6/25 20/24/24 26/26/26 25/9/27
s 5
f 21/20/28 22/10/29 25/9/30 26/26/31
f 22/10/29 21/20/28 24/22/32 23/2/33
s 6
f 12/3/34 13/4/35 10/8/36 16/7/37
f 13/4/35 17/5/38 19/6/39 10/8/36
f 16/7/37 10/8/36 22/10/40 23/2/41
f 10/8/36 19/6/39 25/9/42 22/10/40
s 7
f 5/13/43 6/11/44 14/16/45 11/12/46
s 8
f 7/21/47 5/13/48 11/12/49 15/14/50
s 7
f 6/11/44 8/15/51 18/18/52 14/16/45
s 9
f 8/15/53 2/17/54 20/24/55 18/18/56
s 10
f 3/25/57 9/19/58 24/22/59 21/20/60
s 8
f 9/19/61 7/21/47 15/14/50 24/22/62
s 9
f 2/17/54 4/23/63 26/26/64 20/24/55
s 10
f 4/23/65 3/25/57 21/20/60 26/26/66
s 11
f 34/27/67 33/28/68 29/29/69 27/30/70
f 27/30/70 29/29/69 30/31/71 28/32/72
f 33/28/68 35/33/73 31/34/74 29/29/69
f 29/29/69 31/34/74 32/35/75 30/31/71
s 12
f 37/36/76 38/37/77 42/38/78 41/39/79
s 13
f 38/37/80 37/36/81 40/40/82 39/41/83
f 39/41/83 40/40/82 44/42/84 43/43/85
s 12
f 41/39/79 42/38/78 49/44/86 50/45/87
s 14
f 43/43/88 44/42/89 46/46/90 45/47/91
f 45/47/91 46/46/90 52/48/92 51/49/93
s 15
f 47/50/94 48/51/95 51/49/96 52/48/97
f 48/51/95 47/50/94 50/45/98 49/44/99
s 16
f 38/37/100 39/41/101 36/52/102 42/38/103
f 39/41/101 43/43/104 45/47/105 36/52/102
f 42/38/103 36/52/102 48/51/106 49/44/107
f 36/52/102 45/47/105 51/49/108 48/51/106
s 17
f 34/27/109 27/30/110 40/40/111 37/36/112
s 18
f 33/28/113 34/27/114 37/36/115 41/39/116
s 17
f 27/30/110 28/32/117 44/42/118 40/40/111
s 19
f 28/32/119 30/31/120 46/46/121 44/42/122
s 20
f 31/34/123 35/33/124 50/45/125 47/50/126
s 18
f 35/33/127 33/28/113 41/39/116 50/45/128
s 19
f 30/31/120 32/35/129 52/48/130 46/46/121
s 20
f 32/35/131 31/34/123 47/50/126 52/48/132
s 21
f 53/53/133 56/54/134 57/55/135 54/56/136
f 54/56/136 57/55/135 58/57/137 55/58/138
f 56/54/134 59/59/139 60/60/140 57/55/135
f 57/55/135 60/60/140 61/61/141 58/57/137
s 22
f 63/62/142 64/63/143 68/64/144 67/65/145
s 23
f 64/63/146 63/62/147 66/66/148 65/67/149
f 65/67/149 66/66/148 70/68/150 69/69/151
s 22
f 67/65/145 68/64/144 75/70/152 76/71/153
s 24
f 69/69/154 70/68/155 72/72/156 71/73/157
f 71/73/157 72/72/156 78/74/158 77/75/159
s 25
f 73/76/160 74/77/161 77/75/162 78/74/163
f 74/77/161 73/76/160 76/71/164 75/70/165
s 26
f 64/63/166 65/67/167 62/78/168 68/64/169
f 65/67/167 69/69/170 71/73/171 62/78/168
f 68/64/169 62/78/168 74/77/172 75/70/173
f 62/78/168 71/73/171 77/75/174 74/77/172
s 27
f 53/53/175 54/56/176 66/66/177 63/62/178
s 28
f 56/54/179 53/53/180 63/62/181 67/65/182
s 27
f 54/56/176 55/58/183 70/68/184 66/66/177
s 29
f 55/58/185 58/57/186 72/72/187 70/68/188
s 30
f 60/60/189 59/59/190 76/71/191 73/76/192
s 28
f 59/59/193 56/54/179 67/65/182 76/71/194
s 29
f 58/57/186 61/61/195 78/74/196 72/72/187
s 30
f 61/61/197 60/60/189 73/76/192 78/74/198
s 31
f 79/79/199 82/80/200 83/81/201 80/82/202
f 80/82/202 83/81/201 84/83/203 81/84/204
f 82/80/200 86/85/205 85/86/206 83/81/201
f 83/81/201 85/86/206 87/87/207 84/83/203
s 32
f 89/88/208 90/89/209 94/90/210 93/91/211
s 33
f 90/89/212 89/88/213 92/92/214 91/93/215
f 91/93/215 92/92/214 96/94/216 95/95/217
s 32
f 93/91/211 94/90/210 101/96/218 102/97/219
s 34
f 95/95/220 96/94/221 98/98/222 97/99/223
f 97/99/223 98/98/222 104/100/224 103/101/225
s 35
f 99/102/226 100/103/227 103/101/228 104/100/229
f 100/103/227 99/102/226 102/97/230 101/96/231
s 36
f 90/89/232 91/93/233 88/104/234 94/90/235
f 91/93/233 95/95/236 97/99/237 88/104/234
f 94/90/235 88/104/234 100/103/238 101/96/239
f 88/104/234 97/99/237 103/101/240 100/103/238
s 37
f 79/79/241 80/82/242 92/92/243 89/88/244
s 38
f 82/80/245 79/79/246 89/88/247 93/91/248
s 37
f 80/82/242 81/84/249 96/94/250 92/92/243
s 39
f 81/84/251 84/83/252 98/98/253 96/94/254
s 40
f 85/86/255 86/85/256 102/97/257 99/102/258
s 38
f 86/85/259 82/80/245 93/91/248 102/97/260
s 39
f 84/83/252 87/87/261 104/100/262 98/98/253
s 40
f 87/87/263 85/86/255 99/102/258 104/100/264
