# This file uses centimeters as units for non-parametric coordinates.

mtllib Cuarto.mtl
g default
v 20.160349 -8.938086 8.938086
v 20.160349 8.938086 8.938086
v 20.160349 8.938086 -8.938086
v 20.160349 -8.938086 -8.938086
v 19.582716 -8.681992 8.938086
v 19.582716 8.681992 8.938086
v 19.582716 -8.681992 -7.977399
v 19.582716 8.681992 -7.977399
v 20.160349 8.938086 4.250578
v 20.160349 -8.938086 4.250578
v 20.160349 -8.938086 -3.897457
v 20.160349 8.938086 -3.897458
v 19.582716 3.577692 -7.977399
v 19.582716 3.577692 8.938086
v 20.160349 3.683224 8.938086
v 20.160349 3.683224 4.250578
v 20.160349 3.683224 -3.897458
v 20.160349 3.683224 -8.938086
v 19.582716 -7.766266 -7.977399
v 19.582716 -7.766266 8.938086
v 20.160349 -7.995349 8.938086
v 20.160349 -7.995350 4.250578
v 20.160349 -7.995349 -3.897457
v 20.160349 -7.995350 -8.938086
v 20.160349 3.299245 3.982680
v 20.160349 3.299245 -3.629559
v 20.160349 -7.611371 3.982680
v 20.160349 -7.611370 -3.629558
v 19.497403 3.299245 3.982680
v 19.497403 3.299245 -3.629559
v 19.497403 -7.611371 3.982680
v 19.497403 -7.611370 -3.629558
v 19.582716 3.577692 4.152204
v 19.582716 8.681991 4.152204
v 19.582716 -8.681991 4.152204
v 19.582716 -7.766266 4.152204
v 19.582716 3.577692 -3.767081
v 19.582716 8.681992 -3.767081
v 19.582716 -8.681992 -3.767081
v 19.582716 -7.766266 -3.767081
v 0.000000 -8.938086 8.938086
v 0.000000 -8.938086 4.250578
v 0.000000 -8.938086 -3.897457
v 0.000000 -8.938086 -8.938086
v 0.000000 -7.995350 -8.938086
v 0.000000 3.683223 -8.938086
v 0.000000 8.938086 -8.938086
v 0.000000 8.938086 -3.897458
v 0.000000 8.938086 4.250578
v 0.000000 8.938086 8.938086
v 0.000000 8.681992 8.938086
v 0.000000 8.681990 4.152204
v 0.000000 8.681991 -3.767081
v 0.000000 8.681992 -7.977399
v 0.000000 3.577692 -7.977399
v 0.000000 -7.766266 -7.977399
v 0.000000 -8.681992 -7.977399
v 0.000000 -8.681992 -3.767081
v 0.000000 -8.681991 4.152204
v 0.000000 -8.681992 8.938086
v -20.160349 -8.938086 8.938086
v -20.160349 8.938086 8.938086
v -20.160349 8.938086 -8.938086
v -20.160349 -8.938086 -8.938086
v -19.582716 -8.681992 8.938086
v -19.582716 8.681992 8.938086
v -19.582716 -8.681992 -7.977399
v -19.582716 8.681992 -7.977399
v -20.160349 8.938086 4.250578
v -20.160349 -8.938086 4.250578
v -20.160349 -8.938086 -3.897457
v -20.160349 8.938086 -3.897458
v -19.582716 3.577692 -7.977399
v -19.582716 3.577692 8.938086
v -20.160349 3.683224 8.938086
v -20.160349 3.683224 4.250578
v -20.160349 3.683224 -3.897458
v -20.160349 3.683224 -8.938086
v -19.582716 -7.766266 -7.977399
v -19.582716 -7.766266 8.938086
v -20.160349 -7.995349 8.938086
v -20.160349 -7.995350 4.250578
v -20.160349 -7.995349 -3.897457
v -20.160349 -7.995350 -8.938086
v -20.160349 3.299245 3.982680
v -20.160349 3.299245 -3.629559
v -20.160349 -7.611371 3.982680
v -20.160349 -7.611370 -3.629558
v -19.497403 3.299245 3.982680
v -19.497403 3.299245 -3.629559
v -19.497403 -7.611371 3.982680
v -19.497403 -7.611370 -3.629558
v -19.582716 3.577692 4.152204
v -19.582716 8.681991 4.152204
v -19.582716 -8.681991 4.152204
v -19.582716 -7.766266 4.152204
v -19.582716 3.577692 -3.767081
v -19.582716 8.681992 -3.767081
v -19.582716 -8.681992 -3.767081
v -19.582716 -7.766266 -3.767081
vt 0.611393 0.539523
vt 0.316085 0.476025
vt 0.316063 0.399081
vt 0.316087 0.539523
vt 0.161398 0.108086
vt 0.072513 0.107859
vt 0.072762 0.010355
vt 0.861229 0.768861
vt 0.273710 0.108373
vt 0.216385 0.108226
vt 0.216634 0.010723
vt 0.273959 0.010869
vt 0.555266 0.109092
vt 0.466380 0.108865
vt 0.466629 0.011361
vt 0.762975 0.553172
vt 0.764336 0.704015
vt 0.862082 0.705815
vt 0.316085 0.986202
vt 0.606401 0.109222
vt 0.606650 0.011718
vt 0.316084 0.922710
vt 0.929144 0.203231
vt 0.706303 0.704957
vt 0.021627 0.010225
vt 0.018826 0.013011
vt 0.021378 0.107729
vt 0.018584 0.107721
vt 0.611409 0.399099
vt 0.611392 0.922710
vt 0.611393 0.986204
vt 0.611338 0.476032
vt 0.749288 0.203231
vt 0.316086 0.476032
vt 0.611393 0.476032
vt 0.411393 0.108724
vt 0.411642 0.011220
vt 0.316054 0.228006
vt 0.611410 0.227986
vt 0.929144 0.042646
vt 0.706044 0.564321
vt 0.763083 0.564606
vt 0.861449 0.564838
vt 0.401358 0.011194
vt 0.401109 0.108698
vt 0.749289 0.042646
vt 0.767687 0.699336
vt 0.858759 0.701094
vt 0.766430 0.569215
vt 0.858120 0.569505
vt 0.772472 0.696078
vt 0.854126 0.697936
vt 0.771034 0.572373
vt 0.853425 0.572737
vt 0.611393 0.731117
vt 0.861394 0.203231
vt 0.316086 0.731117
vt 0.316085 0.803287
vt 0.316087 0.731117
vt 0.861394 0.042646
vt 0.316086 0.658946
vt 0.930386 0.460745
vt 0.161149 0.205590
vt 0.860515 0.985353
vt 0.273461 0.205877
vt 0.700506 0.985117
vt 0.861070 0.768901
vt 0.759605 0.768729
vt 0.761097 0.921548
vt 0.861109 0.922226
vt 0.611391 0.731121
vt 0.915958 0.769518
vt 0.697790 0.460745
vt 0.697790 0.530931
vt 0.021129 0.205233
vt 0.916155 0.921990
vt 0.316052 0.214197
vt 0.872492 0.292169
vt 0.611393 0.658946
vt 0.872492 0.460745
vt 0.698955 0.769707
vt 0.930386 0.304761
vt 0.697790 0.304761
vt 0.916146 0.780442
vt 0.860703 0.780591
vt 0.400860 0.206202
vt 0.759929 0.780494
vt 0.872492 0.304761
vt 0.764492 0.916791
vt 0.857661 0.917427
vt 0.857439 0.785311
vt 0.763250 0.785192
vt 0.769038 0.913588
vt 0.852841 0.914111
vt 0.852736 0.788592
vt 0.767967 0.788445
vt 0.763598 0.530931
vt 0.763598 0.460745
vt 0.611391 0.803286
vt 0.763598 0.304761
vt 0.608953 0.203940
vt 0.923086 0.783108
vt 0.020779 0.986202
vt 0.611408 0.214173
vt 0.923048 0.920720
vt 0.020779 0.476025
vt 0.020779 0.922712
vt 0.020779 0.539526
vt 0.922473 0.981965
vt 0.609195 0.109229
vt 0.020790 0.399058
vt 0.020793 0.228021
vt 0.699374 0.555987
vt 0.689687 0.029683
vt 0.020793 0.214213
vt 0.929144 0.275488
vt 0.698955 0.567025
vt 0.699231 0.703775
vt 0.689687 0.042646
vt 0.689687 0.203231
vt 0.763598 0.292169
vt 0.020780 0.803287
vt 0.020781 0.476031
vt 0.872492 0.530931
vt 0.921548 0.772359
vt 0.697790 0.292169
vt 0.018342 0.202432
vt 0.020781 0.731118
vt 0.761031 0.985275
vt 0.466132 0.206369
vt 0.555017 0.206596
vt 0.606152 0.206726
vt 0.915464 0.984953
vt 0.072264 0.205363
vt 0.930386 0.530931
vt 0.930386 0.292169
vt 0.749289 0.029683
vt 0.020779 0.731120
vt 0.749288 0.275488
vt 0.689687 0.275488
vt 0.861394 0.029683
vt 0.861394 0.275488
vt 0.161647 0.010582
vt 0.861543 0.553245
vt 0.555515 0.011588
vt 0.706623 0.553185
vt 0.763191 0.767795
vt 0.700139 0.764931
vt 0.020781 0.658944
vt 0.929144 0.029683
vt 0.609436 0.014519
vt 0.706954 0.767929
vt 0.699023 0.781012
vt 0.411144 0.206228
vt 0.700146 0.922121
vt 0.216137 0.205730
vt 0.923500 0.564604
vt 0.923714 0.553024
vt 0.923016 0.706152
vt 0.922162 0.769433
vn 0.000000 0.000000 1.000000
vn 0.000000 0.000000 1.000000
vn 0.000000 0.000000 1.000000
vn 0.000000 0.000000 1.000000
vn 0.000000 1.000000 0.000000
vn 0.000000 1.000000 0.000000
vn 0.000000 1.000000 0.000000
vn 0.000000 1.000000 0.000000
vn -0.000000 0.000000 -1.000000
vn -0.000000 0.000000 -1.000000
vn 0.000000 0.000000 -1.000000
vn 0.000000 0.000000 -1.000000
vn 0.000000 -1.000000 0.000000
vn 0.000000 -1.000000 0.000000
vn 0.000000 -1.000000 0.000000
vn 0.000000 -1.000000 0.000000
vn 1.000000 0.000000 0.000000
vn 1.000000 0.000000 0.000000
vn 1.000000 0.000000 0.000000
vn 1.000000 0.000000 0.000000
vn 0.000000 0.000000 1.000000
vn 0.000000 0.000000 1.000000
vn 0.000000 0.000000 1.000000
vn 0.000000 0.000000 1.000000
vn 0.000000 0.000000 1.000000
vn 0.000001 0.000000 1.000000
vn 0.000002 0.000000 1.000000
vn 0.000002 0.000000 1.000000
vn 0.000000 0.000000 1.000000
vn 0.000000 0.000000 1.000000
vn 0.000000 0.000000 1.000000
vn 0.000000 0.000000 1.000000
vn 0.000000 1.000000 0.000000
vn 0.000000 1.000000 -0.000000
vn 0.000000 1.000000 -0.000000
vn 0.000000 1.000000 0.000000
vn -1.000000 0.000000 0.000000
vn -1.000000 0.000000 0.000000
vn -1.000000 0.000000 0.000000
vn -1.000000 0.000000 0.000000
vn 0.000000 -1.000000 -0.000000
vn 0.000000 -1.000000 -0.000000
vn 0.000000 -1.000000 -0.000000
vn 0.000000 -1.000000 -0.000000
vn 0.000000 1.000000 0.000000
vn 0.000000 1.000000 0.000000
vn 1.000000 0.000000 0.000000
vn 1.000000 0.000000 0.000000
vn 0.000000 -1.000000 0.000000
vn 0.000000 -1.000000 0.000000
vn 0.000000 -1.000000 0.000000
vn 0.000000 -1.000000 0.000000
vn 1.000000 0.000000 0.000000
vn 1.000000 0.000000 0.000000
vn 0.000000 1.000000 0.000000
vn 0.000000 1.000000 0.000000
vn 0.000000 0.000000 1.000000
vn 0.000000 0.000000 1.000000
vn 0.000000 0.000000 1.000000
vn 0.000000 0.000000 1.000000
vn 1.000000 0.000000 0.000000
vn 1.000000 0.000000 0.000000
vn 1.000000 0.000000 0.000000
vn 1.000000 0.000000 0.000000
vn 0.000000 0.000000 -1.000000
vn 0.000000 0.000000 -1.000000
vn 0.000000 0.000000 1.000000
vn 0.000000 0.000000 1.000000
vn -1.000000 0.000000 0.000000
vn -1.000000 0.000000 0.000000
vn -1.000000 0.000000 0.000000
vn -1.000000 0.000000 0.000000
vn 0.000000 0.000000 1.000000
vn 0.000000 0.000000 1.000000
vn 1.000000 0.000000 0.000000
vn 1.000000 0.000000 0.000000
vn 1.000000 0.000000 0.000000
vn 1.000000 0.000000 0.000000
vn 0.000000 0.000000 -1.000000
vn 0.000000 0.000000 -1.000000
vn 1.000000 0.000002 0.000000
vn 1.000000 0.000002 0.000000
vn 1.000000 0.000002 0.000000
vn 1.000000 0.000002 0.000000
vn 1.000000 0.000000 0.000000
vn 1.000000 0.000000 0.000000
vn 1.000000 0.000000 0.000000
vn 1.000000 0.000000 0.000000
vn 1.000000 -0.000002 0.000000
vn 1.000000 -0.000002 0.000000
vn 1.000000 -0.000002 0.000000
vn 1.000000 -0.000002 0.000000
vn 1.000000 0.000000 0.000000
vn 1.000000 0.000000 0.000000
vn 1.000000 0.000000 0.000000
vn 1.000000 0.000000 0.000000
vn 0.000000 -1.000000 0.000000
vn 0.000000 -1.000000 0.000000
vn 0.000000 -1.000000 0.000000
vn 0.000000 -1.000000 0.000000
vn 0.000000 0.000000 -1.000000
vn 0.000000 0.000000 -1.000000
vn 0.000000 0.000000 -1.000000
vn 0.000000 0.000000 -1.000000
vn 0.000000 1.000000 0.000000
vn 0.000000 1.000000 0.000000
vn 0.000000 1.000000 0.000000
vn 0.000000 1.000000 0.000000
vn 0.000000 0.000000 1.000000
vn 0.000000 0.000000 1.000000
vn 0.000000 0.000000 1.000000
vn 0.000000 0.000000 1.000000
vn -1.000000 0.000000 0.000000
vn -1.000000 0.000000 0.000000
vn -1.000000 0.000000 0.000000
vn -1.000000 0.000000 0.000000
vn 0.000000 -1.000000 0.000000
vn 0.000000 -1.000000 0.000000
vn 0.000000 -1.000000 0.000000
vn 0.000000 -1.000000 0.000000
vn 0.000000 1.000000 0.000000
vn 0.000000 1.000000 0.000000
vn 0.000000 1.000000 0.000000
vn 0.000000 1.000000 0.000000
vn -1.000000 0.000000 0.000000
vn -1.000000 0.000000 0.000000
vn -1.000000 0.000000 0.000000
vn -1.000000 0.000000 0.000000
vn -1.000000 0.000000 0.000000
vn -1.000000 0.000000 0.000000
vn -1.000000 0.000000 0.000000
vn -1.000000 0.000000 0.000000
vn -1.000000 0.000000 0.000000
vn -1.000000 0.000000 0.000000
vn -1.000000 0.000000 0.000000
vn -1.000000 0.000000 0.000000
vn 0.000000 0.000000 1.000000
vn 0.000000 0.000000 1.000000
vn 0.000000 1.000000 0.000000
vn 0.000000 1.000000 0.000000
vn -0.000000 0.000000 -1.000000
vn -0.000000 0.000000 -1.000000
vn 0.000000 -1.000000 0.000000
vn 0.000000 -1.000000 0.000000
vn -1.000000 0.000000 0.000000
vn -1.000000 0.000000 0.000000
vn -1.000000 0.000000 0.000000
vn -1.000000 0.000000 0.000000
vn 0.000000 0.000000 1.000000
vn 0.000000 0.000000 1.000000
vn 0.000000 0.000000 1.000000
vn -0.000001 0.000000 1.000000
vn -0.000001 0.000000 1.000000
vn 0.000000 0.000000 1.000000
vn 0.000000 0.000000 1.000000
vn 0.000000 0.000000 1.000000
vn 0.000000 1.000000 0.000000
vn 0.000000 1.000000 -0.000000
vn 1.000000 0.000000 0.000000
vn 1.000000 0.000000 0.000000
vn 1.000000 0.000000 0.000000
vn 1.000000 0.000000 0.000000
vn -0.000000 -1.000000 -0.000000
vn -0.000000 -1.000000 -0.000000
vn 0.000000 1.000000 0.000000
vn -1.000000 0.000000 0.000000
vn -1.000000 0.000000 0.000000
vn 0.000000 -1.000000 0.000000
vn 0.000000 -1.000000 0.000000
vn -1.000000 0.000000 0.000000
vn -1.000000 0.000000 0.000000
vn 0.000000 1.000000 0.000000
vn 0.000000 0.000000 1.000000
vn 0.000001 0.000000 1.000000
vn 0.000001 0.000000 1.000000
vn -1.000000 0.000000 0.000000
vn -1.000000 0.000000 0.000000
vn -1.000000 0.000000 0.000000
vn -1.000000 0.000000 0.000000
vn 0.000000 0.000000 -1.000000
vn 0.000000 0.000000 1.000000
vn 1.000000 0.000000 0.000000
vn 1.000000 0.000000 0.000000
vn 1.000000 0.000000 0.000000
vn 1.000000 0.000000 0.000000
vn 0.000000 0.000000 1.000000
vn 0.000000 0.000000 1.000000
vn -1.000000 0.000000 0.000000
vn -1.000000 0.000000 0.000000
vn -1.000000 0.000000 0.000000
vn -1.000000 0.000000 0.000000
vn 0.000000 0.000000 -1.000000
vn -1.000000 0.000000 0.000000
vn -1.000000 0.000000 0.000000
vn -1.000000 0.000000 0.000000
vn -1.000000 0.000000 0.000000
vn -1.000000 0.000000 0.000000
vn -1.000000 0.000000 0.000000
vn -1.000000 0.000000 0.000000
vn -1.000000 0.000000 0.000000
vn -1.000000 0.000000 0.000000
vn -1.000000 0.000000 0.000000
vn -1.000000 0.000000 0.000000
vn -1.000000 0.000000 0.000000
vn -1.000000 0.000000 0.000000
vn -1.000000 0.000000 0.000000
vn -1.000000 0.000000 0.000000
vn -1.000000 0.000000 0.000000
vn 0.000000 -1.000000 0.000000
vn 0.000000 -1.000000 0.000000
vn 0.000000 -1.000000 0.000000
vn 0.000000 -1.000000 0.000000
vn 0.000000 0.000000 -1.000000
vn 0.000000 0.000000 -1.000000
vn 0.000000 0.000000 -1.000000
vn 0.000000 0.000000 -1.000000
vn 0.000000 1.000000 0.000000
vn 0.000000 1.000000 0.000000
vn 0.000000 1.000000 0.000000
vn 0.000000 1.000000 0.000000
vn 0.000000 0.000000 1.000000
vn 0.000000 0.000000 1.000000
vn 0.000000 0.000000 1.000000
vn 0.000000 0.000000 1.000000
vn 1.000000 0.000000 0.000000
vn 1.000000 0.000000 0.000000
vn 1.000000 0.000000 0.000000
vn 1.000000 0.000000 0.000000
vn -0.000000 -1.000000 0.000000
vn -0.000000 -1.000000 0.000000
vn 0.000000 1.000000 0.000000
vn 0.000000 1.000000 0.000000
vn 1.000000 0.000000 0.000000
vn 1.000000 0.000000 0.000000
vn 1.000000 0.000000 0.000000
vn 1.000000 0.000000 0.000000
vn 1.000000 0.000000 0.000000
vn 1.000000 0.000000 0.000000
vn 1.000000 0.000000 0.000000
vn 1.000000 0.000000 0.000000
vn 1.000000 0.000000 0.000000
vn 1.000000 0.000000 0.000000
vn 1.000000 0.000000 0.000000
vn 1.000000 0.000000 0.000000
s 1
g pCube1
usemtl initialShadingGroup
f 54/2/1 55/3/2 13/29/3 8/32/4
s 2
f 48/5/5 49/6/6 9/7/7 12/143/8
s 3
f 46/9/9 47/10/10 3/11/11 18/12/12
s 4
f 42/13/13 43/14/14 11/15/15 10/145/16
s 5
f 9/147/17 16/17/18 17/18/19 12/8/20
s 6
f 60/110/21 41/20/22 1/21/23 5/151/24
s 7
f 14/118/25 15/24/26 2/152/27 6/148/28
s 8
f 2/25/29 50/27/30 51/28/31 6/26/32
s 9
f 57/19/33 58/22/34 39/30/35 7/31/36
s 10
f 13/120/37 37/33/38 38/139/39 8/140/40
s 11
f 38/1/41 53/4/42 54/34/43 8/35/44
s 2
f 49/6/6 50/27/45 2/25/46 9/7/7
s 5
f 15/24/47 16/17/18 9/147/17 2/152/48
s 4
f 41/20/49 42/13/13 10/145/16 1/21/50
f 43/14/14 44/36/51 4/37/52 11/15/15
s 5
f 12/8/20 17/18/19 18/159/53 3/160/54
s 2
f 47/10/55 48/5/5 12/143/8 3/11/56
s 1
f 55/3/2 56/38/57 19/39/58 13/29/3
s 7
f 20/117/59 21/41/60 15/24/26 14/118/25
s 5
f 21/41/61 22/42/62 16/17/18 15/24/47
f 18/159/53 17/18/19 23/43/63 24/157/64
s 3
f 45/45/65 46/9/9 18/12/12 24/44/66
s 1
f 56/38/57 57/77/67 7/104/68 19/39/58
s 12
f 39/137/69 40/46/70 19/119/71 7/114/72
s 7
f 1/146/73 21/41/60 20/117/59 5/113/74
s 5
f 1/146/75 10/16/76 22/42/62 21/41/61
f 23/43/63 22/42/62 10/16/76 11/144/77
f 24/157/64 23/43/63 11/144/77 4/158/78
s 3
f 44/36/79 45/45/65 24/44/66 4/37/80
s off
f 17/18/81 16/17/82 25/47/83 26/48/84
f 16/17/85 22/42/86 27/49/87 25/47/88
f 22/42/89 23/43/90 28/50/91 27/49/92
f 23/43/93 17/18/94 26/48/95 28/50/96
f 26/48/97 25/47/98 29/51/99 30/52/100
f 25/47/101 27/49/102 31/53/103 29/51/104
f 27/49/105 28/50/106 32/54/107 31/53/108
f 28/50/109 26/48/110 30/52/111 32/54/112
s 10
f 34/142/113 33/56/114 14/23/115 6/116/116
s 11
f 6/55/117 51/57/118 52/61/119 34/79/120
s 9
f 59/58/121 60/59/122 5/71/123 35/99/124
s 12
f 5/150/125 20/40/126 36/60/127 35/141/128
s 10
f 38/139/39 37/33/38 33/56/114 34/142/113
s 11
f 34/79/120 52/61/119 53/4/42 38/1/41
s 9
f 58/22/34 59/58/121 35/99/124 39/30/35
s 12
f 35/141/128 36/60/127 40/46/70 39/137/69
s off
f 37/33/129 13/120/130 19/119/131 40/46/132
f 14/23/133 33/56/134 36/60/135 20/40/136
s 1
f 54/2/1 68/106/137 73/111/138 55/3/2
s 2
f 48/5/5 72/63/139 69/134/140 49/6/6
s 3
f 46/9/9 78/65/141 63/156/142 47/10/10
s 4
f 42/13/13 70/131/143 71/130/144 43/14/14
s 15
f 69/64/145 72/129/146 77/69/147 76/70/148
s 6
f 60/110/21 65/101/149 61/132/150 41/20/22
s 16
f 74/105/151 66/109/152 62/133/153 75/76/154
s 8
f 62/75/155 66/127/156 51/28/31 50/27/30
s 9
f 57/19/33 67/103/157 99/107/158 58/22/34
s 17
f 73/62/159 68/135/160 98/124/161 97/80/162
s 11
f 98/108/163 68/123/164 54/34/43 53/4/42
s 2
f 49/6/6 69/134/140 62/75/165 50/27/45
s 15
f 75/76/166 62/133/167 69/64/145 76/70/148
s 4
f 41/20/49 61/132/168 70/131/143 42/13/13
f 43/14/14 71/130/144 64/154/169 44/36/51
s 15
f 72/129/146 63/66/170 78/155/171 77/69/147
s 2
f 47/10/55 63/156/172 72/63/139 48/5/5
s 1
f 55/3/2 73/111/138 79/112/173 56/38/57
s 16
f 80/102/174 74/105/151 75/76/154 81/84/175
s 15
f 81/84/176 75/76/166 76/70/148 82/85/177
f 78/155/171 84/153/178 83/87/179 77/69/147
s 3
f 45/45/65 84/86/180 78/65/141 46/9/9
s 1
f 56/38/57 79/112/173 67/115/181 57/77/67
s 18
f 99/78/182 67/136/183 79/82/184 100/88/185
s 16
f 61/72/186 65/125/187 80/102/174 81/84/175
s 15
f 61/72/188 81/84/176 82/85/177 70/67/189
f 83/87/179 71/68/190 70/67/189 82/85/177
f 84/153/178 64/81/191 71/68/190 83/87/179
s 3
f 44/36/79 64/154/192 84/86/180 45/45/65
s off
f 77/69/193 86/89/194 85/90/195 76/70/196
f 76/70/197 85/90/198 87/91/199 82/85/200
f 82/85/201 87/91/202 88/92/203 83/87/204
f 83/87/205 88/92/206 86/89/207 77/69/208
f 86/89/209 90/93/210 89/94/211 85/90/212
f 85/90/213 89/94/214 91/95/215 87/91/216
f 87/91/217 91/95/218 92/96/219 88/92/220
f 88/92/221 92/96/222 90/93/223 86/89/224
s 17
f 94/97/225 66/74/226 74/73/227 93/98/228
s 11
f 66/128/229 94/149/230 52/61/119 51/57/118
s 9
f 59/58/121 95/122/231 65/138/232 60/59/122
s 18
f 65/126/233 95/121/234 96/100/235 80/83/236
s 17
f 98/124/161 94/97/225 93/98/228 97/80/162
s 11
f 94/149/230 98/108/163 53/4/42 52/61/119
s 9
f 58/22/34 99/107/158 95/122/231 59/58/121
s 18
f 95/121/234 99/78/182 100/88/185 96/100/235
s off
f 97/80/237 100/88/238 79/82/239 73/62/240
f 74/73/241 80/83/242 96/100/243 93/98/244
