# This file uses centimeters as units for non-parametric coordinates.

mtllib MarcoPuerta.mtl
g default
v -75.000000 -125.000000 15.000000
v 75.000000 -125.000000 15.000000
v -75.000000 125.000000 15.000000
v 75.000000 125.000000 15.000000
v -75.000000 125.000000 -15.000000
v 75.000000 125.000000 -15.000000
v -75.000000 -125.000000 -15.000000
v 75.000000 -125.000000 -15.000000
v 48.796288 -125.000000 15.000000
v 48.796288 125.000000 15.000000
v 48.796288 125.000000 -15.000000
v 48.796288 -125.000000 -15.000000
v -48.796303 -125.000000 15.000000
v -48.796303 125.000000 15.000000
v -48.796303 125.000000 -15.000000
v -48.796303 -125.000000 -15.000000
v -75.000000 89.517990 15.000000
v -48.796303 89.517990 15.000000
v 48.796288 89.517990 15.000000
v 75.000000 89.517990 15.000000
v 75.000000 89.517990 -15.000000
v 48.796288 89.517990 -15.000000
v -48.796303 89.517990 -15.000000
v -75.000000 89.517990 -15.000000
v -75.000000 114.164009 -15.000000
v -48.796303 114.164009 -15.000000
v 48.796288 114.164009 -15.000000
v 75.000000 114.164009 -15.000000
v 75.000000 114.164009 15.000000
v 48.796288 114.164009 15.000000
v -48.796303 114.164009 15.000000
v -75.000000 114.164009 15.000000
v -75.000000 125.000000 -17.900000
v -48.796303 125.000000 -17.900000
v 48.796288 125.000000 -17.900000
v 75.000000 125.000000 -17.900000
v 75.000000 125.000000 17.900000
v 48.796288 125.000000 17.900000
v -48.796303 125.000000 17.900000
v -75.000000 125.000000 17.900000
v -48.796303 114.164009 -16.740116
v -48.796303 115.323891 -17.900000
v -75.000000 115.323891 -17.900000
v -75.000000 114.164009 -16.740116
v 48.796288 114.164009 -16.740116
v 48.796288 115.323891 -17.900000
v 75.000000 115.323891 -17.900000
v 75.000000 114.164009 -16.740116
v 75.000000 115.323891 17.900000
v 75.000000 114.164009 16.740116
v 48.796288 114.164009 16.740116
v 48.796288 115.323891 17.900000
v -48.796303 114.164009 16.740116
v -48.796303 115.323891 17.900000
v -75.000000 115.323891 17.900000
v -75.000000 114.164009 16.740116
vt 1.000000 0.571479
vt 0.252020 0.852851
vt 0.236292 0.874312
vt 0.141117 0.874312
vt 0.130584 0.921735
vt 0.118214 0.698048
vt 0.119242 0.798394
vt 0.031594 0.799292
vt 0.577781 0.948243
vt 0.473521 0.940288
vt 0.764822 0.597454
vt 0.920080 0.571479
vt 0.840073 0.571558
vt 0.420036 0.597454
vt 0.030040 0.940288
vt 0.696472 0.882378
vt 0.349850 0.854474
vt 0.590763 0.874312
vt 0.445678 0.795051
vt 0.444650 0.694704
vt 0.532298 0.693807
vt 0.019651 0.987062
vt 0.493016 0.597454
vt 0.123910 0.940288
vt 1.000000 0.000000
vt 0.072980 0.000000
vt 0.564890 0.858041
vt 0.417765 0.000000
vt 0.920004 0.000000
vt 0.493016 0.000000
vt 0.037479 0.819212
vt 0.837801 0.000000
vt 0.473521 0.987062
vt 0.567392 0.987062
vt 0.567392 0.952398
vt 0.567392 0.946522
vt 0.123910 0.987062
vt 0.030040 0.987062
vt 0.030040 0.946522
vt 0.030040 0.952398
vt 0.685939 0.921736
vt 0.685939 0.886591
vt 0.685939 0.880633
vt 0.590763 0.921736
vt 0.236292 0.921736
vt 0.141117 0.921736
vt 0.141117 0.880633
vt 0.141117 0.886591
vt 0.473521 0.946522
vt 0.473521 0.952398
vt 0.123910 0.952398
vt 0.123910 0.946522
vt 0.590763 0.886591
vt 0.590763 0.880633
vt 0.236292 0.886591
vt 0.236292 0.880633
vt 0.350349 0.824401
vt 0.252519 0.822778
vt 0.072980 0.597454
vt 0.344785 0.597454
vt 0.764822 0.000000
vt 0.565388 0.827968
vt 0.036981 0.849284
vt 0.344785 0.000000
vt 0.072980 0.666096
vt 0.000000 0.666096
vt 1.000000 0.637136
vt 0.344785 0.666096
vt 0.417765 0.666096
vt 0.493016 0.666096
vt 0.420036 0.666096
vt 0.920004 0.637224
vt 0.764822 0.666096
vt 0.021619 0.882378
vt 0.837801 0.666096
vt 0.920004 0.571558
vt 0.837801 0.597454
vt 0.920080 0.000000
vt 0.420036 0.000000
vt 0.417765 0.597454
vt 0.000000 0.597454
vt 0.840073 0.000000
vt 0.000000 0.000000
vt 0.030466 0.689246
vt 0.118115 0.688348
vt 0.030566 0.698946
vt 0.444550 0.685004
vt 0.532199 0.684107
vt 0.696472 0.921736
vt 0.445777 0.804751
vt 0.533425 0.803853
vt 0.805436 0.921736
vt 0.533326 0.794153
vt 0.119341 0.808095
vt 0.031693 0.808992
vt 0.021619 0.921736
vt 0.577781 0.987062
vt 0.136904 0.882378
vt 0.690152 0.882378
vt 0.025884 0.948243
vt 0.571547 0.948243
vt 0.130584 0.882378
vt 0.685939 0.874312
vt 0.019651 0.948243
vt 0.567392 0.940288
vt 0.920080 0.637136
vt 0.805436 0.882378
vt 0.840073 0.637224
vn 0.000000 0.000000 1.000000
vn 0.000000 0.000000 1.000000
vn 0.000000 0.000000 1.000000
vn 0.000000 0.000000 1.000000
vn 0.000000 1.000000 0.000000
vn 0.000000 1.000000 0.000000
vn 0.000000 1.000000 0.000000
vn 0.000000 1.000000 0.000000
vn 0.000000 0.000000 -1.000000
vn 0.000000 0.000000 -1.000000
vn 0.000000 0.000000 -1.000000
vn 0.000000 0.000000 -1.000000
vn 1.000000 0.000000 0.000000
vn 1.000000 0.000000 0.000000
vn 1.000000 0.000000 0.000000
vn 1.000000 0.000000 0.000000
vn -1.000000 0.000000 0.000000
vn -1.000000 0.000000 0.000000
vn -1.000000 0.000000 0.000000
vn -1.000000 0.000000 0.000000
vn 0.000000 0.000000 1.000000
vn 0.000000 0.000000 1.000000
vn 0.000000 0.000000 1.000000
vn 0.000000 0.000000 1.000000
vn 0.000000 1.000000 0.000000
vn 0.000000 1.000000 0.000000
vn 0.000000 1.000000 0.000000
vn 0.000000 1.000000 0.000000
vn 0.000000 0.000000 -1.000000
vn 0.000000 0.000000 -1.000000
vn 0.000000 0.000000 -1.000000
vn 0.000000 0.000000 -1.000000
vn 0.000000 0.000000 1.000000
vn 0.000000 0.000000 1.000000
vn 0.000000 0.000000 1.000000
vn 0.000000 0.000000 1.000000
vn 1.000000 0.000000 0.000000
vn 1.000000 0.000000 0.000000
vn 0.000000 0.000000 -1.000000
vn 0.000000 0.000000 -1.000000
vn 0.000000 0.000000 -1.000000
vn 0.000000 0.000000 -1.000000
vn -1.000000 0.000000 0.000000
vn -1.000000 0.000000 0.000000
vn 0.000000 -1.000000 0.000000
vn 0.000000 -1.000000 0.000000
vn 0.000000 -1.000000 0.000000
vn 0.000000 -1.000000 0.000000
vn 1.000000 0.000000 0.000000
vn 1.000000 0.000000 0.000000
vn 1.000000 0.000000 0.000000
vn 1.000000 0.000000 0.000000
vn -1.000000 0.000000 0.000000
vn -1.000000 0.000000 0.000000
vn -1.000000 0.000000 0.000000
vn -1.000000 0.000000 0.000000
vn 1.000000 0.000000 0.000000
vn 1.000000 0.000000 0.000000
vn -1.000000 0.000000 0.000000
vn -1.000000 0.000000 0.000000
vn 0.000000 1.000000 0.000000
vn 0.000000 1.000000 0.000000
vn -1.000000 0.000000 0.000000
vn -1.000000 0.000000 0.000000
vn -1.000000 0.000000 0.000000
vn 0.000000 1.000000 0.000000
vn 0.000000 1.000000 0.000000
vn 1.000000 0.000000 0.000000
vn 1.000000 0.000000 0.000000
vn 1.000000 0.000000 0.000000
vn 1.000000 0.000000 0.000000
vn 1.000000 0.000000 0.000000
vn 1.000000 0.000000 0.000000
vn 0.000000 1.000000 0.000000
vn 0.000000 1.000000 0.000000
vn 0.000000 1.000000 0.000000
vn 0.000000 1.000000 0.000000
vn -1.000000 0.000000 0.000000
vn -1.000000 0.000000 0.000000
vn -1.000000 0.000000 0.000000
vn 0.000000 -0.707108 -0.707105
vn 0.000000 -0.707108 -0.707105
vn 0.000000 -0.707108 -0.707105
vn 0.000000 -0.707108 -0.707105
vn 0.000000 -0.707106 -0.707108
vn 0.000000 -0.707106 -0.707108
vn 0.000000 -0.707106 -0.707107
vn 0.000000 -0.707106 -0.707107
vn 0.000000 -0.707106 0.707107
vn 0.000000 -0.707106 0.707107
vn 0.000000 -0.707108 0.707105
vn 0.000000 -0.707108 0.707105
vn 0.000000 -0.707108 0.707105
vn 0.000000 -0.707108 0.707105
vn 0.000000 -0.707106 0.707108
vn 0.000000 -0.707106 0.707108
vn 0.000000 0.000000 -1.000000
vn 0.000000 0.000000 -1.000000
vn 0.000000 0.000000 -1.000000
vn 0.000000 0.000000 -1.000000
vn 0.000000 0.000000 -1.000000
vn 0.000000 0.000000 -1.000000
vn 0.000000 0.000000 -1.000000
vn 0.000000 0.000000 -1.000000
vn 0.000000 0.000000 1.000000
vn 0.000000 0.000000 1.000000
vn 0.000000 0.000000 1.000000
vn 0.000000 0.000000 1.000000
vn 0.000000 0.000000 1.000000
vn 0.000000 0.000000 1.000000
vn 0.000000 0.000000 1.000000
vn 0.000000 0.000000 1.000000
vn 0.000000 -1.000000 0.000000
vn 0.000000 -1.000000 0.000000
vn 0.000000 -1.000000 0.000000
vn 0.000000 -1.000000 0.000000
vn 0.000000 -1.000000 0.000000
vn 0.000000 -1.000000 0.000000
vn 0.000000 -1.000000 0.000000
vn 0.000000 -1.000000 0.000000
vn 0.000000 -1.000000 0.000000
vn 0.000000 -1.000000 0.000000
vn 0.000000 -1.000000 0.000000
vn 0.000000 -1.000000 0.000000
vn 0.000000 -1.000000 0.000000
vn 0.000000 -1.000000 0.000000
vn 0.000000 -1.000000 0.000000
vn 0.000000 -1.000000 0.000000
s 1
g Pared_con_puerta
usemtl lambert6SG
f 17/81/1 18/59/2 31/65/3 32/66/4
s 2
f 3/86/5 14/6/6 15/7/7 5/8/8
s 3
f 25/75/9 26/73/10 23/11/11 24/77/12
s 4
f 20/13/13 21/76/14 28/72/15 29/108/16
s 5
f 24/12/17 17/1/18 32/67/19 25/106/20
s 1
f 19/60/21 20/80/22 29/69/23 30/68/24
s 2
f 11/19/25 10/20/26 4/21/27 6/93/28
s 3
f 21/14/29 22/23/30 27/70/31 28/71/32
s 1
f 18/59/2 19/60/21 30/68/24 31/65/3
s 2
f 15/7/7 14/6/6 10/20/26 11/19/25
s 3
f 22/23/30 23/11/11 26/73/10 27/70/31
s 1
f 1/83/33 13/26/34 18/59/2 17/81/1
f 9/64/35 2/28/36 20/80/22 19/60/21
s 4
f 2/82/37 8/29/38 21/76/14 20/13/13
s 3
f 12/30/39 22/23/30 21/14/29 8/79/40
f 24/77/12 23/11/11 16/61/41 7/32/42
s 5
f 7/78/43 1/25/44 17/1/18 24/12/17
s off
f 19/17/45 18/2/46 23/58/47 22/57/48
f 18/2/49 13/63/50 16/31/51 23/58/52
f 9/27/53 19/17/54 22/57/55 12/62/56
s 4
f 29/16/16 28/107/15 6/92/57 4/89/58
s 5
f 25/74/20 32/102/19 3/5/59 5/96/60
s 2
f 5/8/8 15/7/7 34/94/61 33/95/62
s 5
f 25/9/20 5/97/60 33/34/63 43/35/64 44/101/65
s 2
f 15/7/7 11/19/25 35/90/66 34/94/61
f 11/19/25 6/93/28 36/91/67 35/90/66
s 4
f 6/22/57 28/104/15 48/100/68 47/40/69 36/38/70
f 29/16/16 4/89/58 37/41/71 49/42/72 50/99/73
s 2
f 4/21/27 10/20/26 38/87/74 37/88/75
f 10/20/26 14/6/6 39/85/76 38/87/74
f 14/6/6 3/86/5 40/84/77 39/85/76
s 5
f 3/5/59 32/102/19 56/98/78 55/48/79 40/46/80
s 8
f 41/49/81 42/50/82 46/51/83 45/52/84
f 42/50/82 41/49/81 44/36/85 43/35/86
f 45/52/84 46/51/83 47/40/87 48/39/88
s 9
f 50/43/89 49/42/90 52/53/91 51/54/92
f 51/54/92 52/53/91 54/55/93 53/56/94
f 53/56/94 54/55/93 55/48/95 56/47/96
s 10
f 33/34/97 34/33/98 42/50/99 43/35/100
f 46/51/101 42/50/99 34/33/98 35/37/102
f 47/40/103 46/51/101 35/37/102 36/38/104
s 11
f 52/53/105 49/42/106 37/41/107 38/44/108
f 54/55/109 52/53/105 38/44/108 39/45/110
f 55/48/111 54/55/109 39/45/110 40/46/112
s 12
f 26/10/113 25/105/114 44/36/115 41/49/116
f 27/24/117 26/10/113 41/49/116 45/52/118
f 28/15/119 27/24/117 45/52/118 48/39/120
s 13
f 30/18/121 29/103/122 50/43/123 51/54/124
f 31/3/125 30/18/121 51/54/124 53/56/126
f 32/4/127 31/3/125 53/56/126 56/47/128
