# This file uses centimeters as units for non-parametric coordinates.

mtllib ParedSola.mtl
g default
v -124.999985 -125.000000 15.000000
v 125.000000 -125.000000 15.000000
v -124.999985 125.000000 15.000000
v 125.000000 125.000000 15.000000
v -124.999985 125.000000 -15.000000
v 125.000000 125.000000 -15.000000
v -124.999985 -125.000000 -15.000000
v 125.000000 -125.000000 -15.000000
v -124.999985 -109.700104 15.000000
v 125.000000 -109.700104 15.000000
v 125.000000 -109.699997 -15.000000
v -124.999985 -109.699997 -15.000000
v -124.999985 -125.000000 19.000000
v 125.000000 -125.000000 19.000000
v 125.000000 -125.000000 -19.000000
v -124.999985 -125.000000 -19.000000
v 125.000000 -111.299942 19.000000
v 125.000000 -109.700104 17.400160
v -124.999985 -111.299942 19.000000
v -124.999985 -109.700104 17.400160
v 125.000000 -111.299835 -19.000000
v 125.000000 -109.699997 -17.400160
v -124.999985 -111.299835 -19.000000
v -124.999985 -109.699997 -17.400160
v -124.999985 114.154495 -15.000000
v 125.000000 114.154495 -15.000000
v 125.000000 114.154510 15.000000
v -124.999985 114.154510 15.000000
v -124.999985 125.000000 -17.900000
v 125.000000 125.000000 -17.900000
v 125.000000 125.000000 17.900000
v -124.999985 125.000000 17.900000
v 125.000000 115.314377 -17.900000
v 125.000000 114.154495 -16.740116
v -124.999985 115.314377 -17.900000
v -124.999985 114.154495 -16.740116
v 125.000000 115.314392 17.900000
v 125.000000 114.154510 16.740116
v -124.999985 115.314392 17.900000
v -124.999985 114.154510 16.740116
vt 0.936030 0.470494
vt 0.930480 0.068335
vt 0.900612 0.480099
vt 0.896432 0.080320
vt 0.875693 0.076134
vt 0.878799 0.475934
vt 0.884383 0.527845
vt 0.887489 0.927645
vt 0.909303 0.931810
vt 0.905122 0.532031
vt 0.000000 0.500000
vt 0.666182 0.003133
vt 0.913042 0.518605
vt 0.900024 0.015271
vt 0.901252 0.062756
vt 0.911814 0.471121
vt 0.911650 0.464789
vt 0.901415 0.069087
vt 0.923100 0.068526
vt 0.933334 0.464229
vt 0.934890 0.524375
vt 0.945124 0.920078
vt 0.923440 0.920639
vt 0.913205 0.524936
vt 0.926681 0.068433
vt 0.936915 0.464136
vt 0.948706 0.919985
vt 0.938471 0.524283
vt 0.892073 0.927556
vt 0.884471 0.532428
vt 0.899780 0.532134
vt 0.907381 0.927262
vt 0.891089 0.080423
vt 0.898691 0.475551
vt 0.883383 0.475846
vt 0.875781 0.080717
vt 0.902372 0.532084
vt 0.909974 0.927212
vt 0.901283 0.475501
vt 0.893682 0.080373
vt 0.664114 0.503133
vt 0.924240 0.014645
vt 0.923603 0.926970
vt 0.000000 1.000000
vt 0.952505 0.919887
vt 0.666182 0.503133
vt 0.937259 0.517979
vt 0.733189 0.003133
vt 0.664114 0.003133
vt 0.558398 0.000000
vt 0.937357 0.521777
vt 0.935932 0.466695
vt 0.942270 0.524184
vt 0.940715 0.464038
vt 0.925567 0.065928
vt 0.925469 0.062130
vt 0.947722 0.922544
vt 0.947820 0.926344
vt 0.597106 0.503133
vt 0.000000 0.500000
vt 0.558398 1.000000
vt 0.558398 0.500000
vt 0.597106 0.003133
vt 0.558398 0.500000
vt 0.000000 0.000000
vt 0.733189 0.503133
vt 0.892834 0.075804
vt 0.891922 0.028389
vt 0.856372 0.952531
vt 0.800058 0.952531
vt 0.800058 0.483244
vt 0.900559 0.477349
vt 0.901578 0.530265
vt 0.883471 0.480429
vt 0.904034 0.475448
vt 0.901525 0.527515
vt 0.879888 0.532516
vt 0.892887 0.078554
vt 0.871198 0.080805
vt 0.909250 0.929060
vt 0.912724 0.927159
vt 0.892161 0.932140
vt 0.856372 0.483244
vt 0.874781 0.028718
vn 0.000000 0.000000 1.000000
vn 0.000000 0.000000 1.000000
vn 0.000000 0.000000 1.000000
vn 0.000000 0.000000 1.000000
vn 0.000000 1.000000 0.000000
vn 0.000000 1.000000 0.000000
vn 0.000000 1.000000 0.000000
vn 0.000000 1.000000 0.000000
vn 0.000000 0.000000 -1.000000
vn 0.000000 0.000000 -1.000000
vn 0.000000 0.000000 -1.000000
vn 0.000000 0.000000 -1.000000
vn 1.000000 0.000000 0.000000
vn 1.000000 -0.000000 0.000000
vn 1.000000 0.000000 0.000000
vn 1.000000 0.000000 0.000000
vn -1.000000 0.000000 0.000000
vn -1.000000 0.000000 0.000000
vn -1.000000 0.000000 0.000000
vn -1.000000 0.000000 0.000000
vn 0.000000 0.000000 1.000000
vn 0.000000 0.000000 1.000000
vn 0.000000 0.000000 1.000000
vn 0.000000 0.000000 1.000000
vn 1.000000 0.000000 0.000000
vn 1.000000 -0.000000 0.000000
vn 0.000000 0.000000 -1.000000
vn 0.000000 0.000000 -1.000000
vn 0.000000 0.000000 -1.000000
vn 0.000000 0.000000 -1.000000
vn -1.000000 0.000000 0.000000
vn -1.000000 0.000000 0.000000
vn 1.000000 0.000000 0.000000
vn 1.000000 0.000000 0.000000
vn 1.000000 0.000000 0.000000
vn 0.000000 1.000000 0.000000
vn 0.000000 1.000000 0.000000
vn 0.000000 1.000000 0.000000
vn 0.000000 1.000000 0.000000
vn -1.000000 0.000001 0.000000
vn -1.000000 0.000001 0.000000
vn -1.000000 0.000001 0.000000
vn 0.000000 1.000000 0.000000
vn 0.000000 1.000000 0.000000
vn 0.000000 1.000000 0.000000
vn 0.000000 1.000000 0.000000
vn 1.000000 -0.000001 0.000000
vn 1.000000 -0.000001 0.000000
vn 1.000000 -0.000001 0.000000
vn -1.000000 0.000000 0.000000
vn -1.000000 0.000000 0.000000
vn -1.000000 0.000000 0.000000
vn 0.000000 0.707106 0.707108
vn 0.000000 0.707106 0.707108
vn 0.000000 0.707106 0.707108
vn 0.000000 0.707106 0.707108
vn 0.000000 0.707108 -0.707106
vn 0.000000 0.707108 -0.707106
vn 0.000000 0.707108 -0.707106
vn 0.000000 0.707108 -0.707106
vn 0.000000 0.000000 -1.000000
vn 0.000000 0.000000 -1.000000
vn 0.000000 0.000000 -1.000000
vn 0.000000 0.000000 -1.000000
vn 1.000000 0.000000 0.000000
vn 1.000000 0.000000 0.000000
vn 0.000000 0.000000 1.000000
vn 0.000000 0.000000 1.000000
vn 0.000000 0.000000 1.000000
vn 0.000000 0.000000 1.000000
vn -1.000000 0.000000 0.000000
vn -1.000000 0.000000 0.000000
vn 0.000000 1.000000 0.000000
vn 0.000000 1.000000 0.000000
vn 1.000000 0.000000 0.000000
vn 1.000000 0.000000 0.000000
vn 1.000000 0.000000 0.000000
vn 0.000000 -1.000000 0.000000
vn 0.000000 -1.000000 0.000000
vn 0.000000 -1.000000 0.000000
vn 0.000000 -1.000000 0.000000
vn -1.000000 0.000000 0.000000
vn -1.000000 0.000000 0.000000
vn -1.000000 0.000000 0.000000
vn 0.000000 -1.000000 0.000000
vn 0.000000 -1.000000 0.000000
vn 0.000000 -1.000000 0.000000
vn 0.000000 -1.000000 0.000000
vn 1.000000 0.000000 0.000000
vn 1.000000 0.000000 0.000000
vn 1.000000 0.000000 0.000000
vn 0.000000 1.000000 0.000000
vn 0.000000 1.000000 0.000000
vn -1.000000 0.000000 0.000000
vn -1.000000 0.000000 0.000000
vn -1.000000 0.000000 0.000000
vn 0.000000 -0.707107 -0.707107
vn 0.000000 -0.707107 -0.707107
vn 0.000000 -0.707107 -0.707107
vn 0.000000 -0.707107 -0.707107
vn 0.000000 -0.707107 0.707107
vn 0.000000 -0.707107 0.707107
vn 0.000000 -0.707107 0.707107
vn 0.000000 -0.707107 0.707107
s off
g Pared_Sola
usemtl lambert5SG
f 9/65/1 10/50/2 27/64/3 28/60/4
s 1
f 3/83/5 4/69/6 6/70/7 5/71/8
s off
f 25/61/9 26/44/10 11/11/11 12/62/12
s 2
f 10/63/13 11/49/14 26/41/15 27/59/16
s 3
f 12/12/17 9/48/18 28/66/19 25/46/20
s off
f 13/17/21 14/18/22 17/19/23 19/20/24
s 2
f 2/15/25 8/14/26 11/42/14 10/56/13
s off
f 23/21/27 21/22/28 15/23/29 16/24/30
s 3
f 7/13/31 1/16/32 9/1/18 12/47/17
s 2
f 2/15/25 10/56/13 18/55/33 17/19/34 14/18/35
s off
f 10/2/36 9/54/37 20/26/38 18/25/39
s 3
f 9/1/18 1/16/32 13/17/40 19/20/41 20/52/42
s off
f 12/53/43 11/45/44 22/27/45 24/28/46
s 2
f 11/58/14 8/43/26 15/23/47 21/22/48 22/57/49
s 3
f 7/13/31 12/47/17 24/51/50 23/21/51 16/24/52
s off
f 17/19/53 18/25/54 20/26/55 19/20/56
f 22/27/57 21/22/58 23/21/59 24/28/60
f 29/29/61 30/30/62 33/31/63 35/32/64
s 2
f 27/3/16 26/76/15 6/7/65 4/74/66
s off
f 39/33/67 37/34/68 31/35/69 32/36/70
s 3
f 25/68/20 28/67/19 3/5/71 5/84/72
s 1
f 5/8/8 6/77/7 30/30/73 29/29/74
s 2
f 6/7/65 26/76/15 34/73/75 33/31/76 30/30/77
s off
f 26/10/78 25/81/79 36/38/80 34/37/81
s 3
f 25/9/20 5/82/72 29/29/82 35/32/83 36/80/84
s off
f 28/4/85 27/75/86 38/39/87 40/40/88
s 2
f 27/3/16 4/74/66 31/35/89 37/34/90 38/72/91
s 1
f 4/6/6 3/79/5 32/36/92 31/35/93
s 3
f 3/5/71 28/67/19 40/78/94 39/33/95 32/36/96
s off
f 33/31/97 34/37/98 36/38/99 35/32/100
f 38/39/101 37/34/102 39/33/103 40/40/104
