# This file uses centimeters as units for non-parametric coordinates.

mtllib Cerca_ madera1obj.mtl
g default
v -1.762501 0.011052 0.148346
v -1.404509 0.011052 0.148346
v -1.762501 2.937297 0.148346
v -1.404509 2.937297 0.148346
v -1.762501 2.937297 -0.148346
v -1.404509 2.937297 -0.148346
v -1.762501 0.011052 -0.148346
v -1.404509 0.011052 -0.148346
v -1.578419 0.011052 0.148346
v -1.578419 0.011052 -0.148346
v -1.578419 3.128272 -0.148346
v -1.578419 3.128272 0.148346
v -1.828504 2.156200 0.148346
v -1.644422 2.156201 0.148346
v -1.470512 2.156200 0.148346
v -1.470512 2.156201 -0.148346
v -1.644422 2.156200 -0.148346
v -1.828504 2.156201 -0.148346
v -1.733166 0.878437 0.148346
v -1.549085 0.878437 0.148346
v -1.375175 0.878437 0.148346
v -1.375175 0.878437 -0.148346
v -1.549085 0.878437 -0.148346
v -1.733166 0.878437 -0.148346
v 1.421247 0.011052 0.148346
v 1.779238 0.011052 0.148346
v 1.421247 2.937297 0.148346
v 1.779238 2.937297 0.148346
v 1.421247 2.937297 -0.148346
v 1.779238 2.937297 -0.148346
v 1.421247 0.011052 -0.148346
v 1.779238 0.011052 -0.148346
v 1.605329 0.011052 0.148346
v 1.605329 0.011052 -0.148346
v 1.605329 3.128272 -0.148346
v 1.605329 3.128272 0.148346
v 1.423882 2.156200 0.148346
v 1.607963 2.156201 0.148346
v 1.781873 2.156200 0.148346
v 1.781873 2.156201 -0.148346
v 1.607963 2.156200 -0.148346
v 1.423882 2.156201 -0.148346
v 1.450582 0.878437 0.148346
v 1.634663 0.878437 0.148346
v 1.808573 0.878437 0.148346
v 1.808573 0.878437 -0.148346
v 1.634663 0.878437 -0.148346
v 1.450582 0.878437 -0.148346
v 2.218125 0.011052 0.148346
v 2.576116 0.011052 0.148346
v 2.218125 2.937297 0.148346
v 2.576116 2.937297 0.148346
v 2.218125 2.937297 -0.148346
v 2.576116 2.937297 -0.148346
v 2.218125 0.011052 -0.148346
v 2.576116 0.011052 -0.148346
v 2.402206 0.011052 0.148346
v 2.402206 0.011052 -0.148346
v 2.402206 3.128272 -0.148346
v 2.402206 3.128272 0.148346
v 2.236365 2.156200 0.148346
v 2.420447 2.156201 0.148346
v 2.594356 2.156200 0.148346
v 2.594356 2.156201 -0.148346
v 2.420447 2.156200 -0.148346
v 2.236365 2.156201 -0.148346
v 2.145108 0.878437 0.148346
v 2.329189 0.878437 0.148346
v 2.503099 0.878437 0.148346
v 2.503099 0.878437 -0.148346
v 2.329189 0.878437 -0.148346
v 2.145108 0.878437 -0.148346
v 0.616896 0.011052 0.148346
v 0.974887 0.011052 0.148346
v 0.616896 2.937297 0.148346
v 0.974887 2.937297 0.148346
v 0.616896 2.937297 -0.148346
v 0.974887 2.937297 -0.148346
v 0.616896 0.011052 -0.148346
v 0.974887 0.011052 -0.148346
v 0.800978 0.011052 0.148346
v 0.800978 0.011052 -0.148346
v 0.800978 3.128272 -0.148346
v 0.800978 3.128272 0.148346
v 0.550893 2.156200 0.148346
v 0.734975 2.156201 0.148346
v 0.908885 2.156200 0.148346
v 0.908885 2.156201 -0.148346
v 0.734975 2.156200 -0.148346
v 0.550893 2.156201 -0.148346
v 0.646231 0.878437 0.148346
v 0.830312 0.878437 0.148346
v 1.004222 0.878437 0.148346
v 1.004222 0.878437 -0.148346
v 0.830312 0.878437 -0.148346
v 0.646231 0.878437 -0.148346
v -2.336177 1.959272 0.066786
v 3.100324 1.959272 0.066786
v -2.336177 2.240937 0.066786
v 3.100324 2.240937 0.066786
v -2.336177 2.240937 -0.057879
v 3.100324 2.240937 -0.057879
v -2.336177 1.959272 -0.057879
v 3.100324 1.959272 -0.057879
v -0.161272 0.011052 0.148346
v 0.196719 0.011052 0.148346
v -0.161272 2.937297 0.148346
v 0.196719 2.937297 0.148346
v -0.161272 2.937297 -0.148346
v 0.196719 2.937297 -0.148346
v -0.161272 0.011052 -0.148346
v 0.196719 0.011052 -0.148346
v 0.022809 0.011052 0.148346
v 0.022809 0.011052 -0.148346
v 0.022809 3.128272 -0.148346
v 0.022809 3.128272 0.148346
v -0.143032 2.156200 0.148346
v 0.041050 2.156201 0.148346
v 0.214959 2.156200 0.148346
v 0.214959 2.156201 -0.148346
v 0.041050 2.156200 -0.148346
v -0.143032 2.156201 -0.148346
v -0.234289 0.878437 0.148346
v -0.050207 0.878437 0.148346
v 0.123702 0.878437 0.148346
v 0.123702 0.878437 -0.148346
v -0.050207 0.878437 -0.148346
v -0.234289 0.878437 -0.148346
v -2.336177 0.811018 0.066786
v 3.100324 0.811018 0.066786
v -2.336177 1.092683 0.066786
v 3.100324 1.092683 0.066786
v -2.336177 1.092683 -0.057879
v 3.100324 1.092683 -0.057879
v -2.336177 0.811018 -0.057879
v 3.100324 0.811018 -0.057879
v -0.958150 0.011052 0.148346
v -0.600158 0.011052 0.148346
v -0.958150 2.937297 0.148346
v -0.600158 2.937297 0.148346
v -0.958150 2.937297 -0.148346
v -0.600158 2.937297 -0.148346
v -0.958150 0.011052 -0.148346
v -0.600158 0.011052 -0.148346
v -0.774068 0.011052 0.148346
v -0.774068 0.011052 -0.148346
v -0.774068 3.128272 -0.148346
v -0.774068 3.128272 0.148346
v -0.955515 2.156200 0.148346
v -0.771434 2.156201 0.148346
v -0.597524 2.156200 0.148346
v -0.597524 2.156201 -0.148346
v -0.771434 2.156200 -0.148346
v -0.955515 2.156201 -0.148346
v -0.928815 0.878437 0.148346
v -0.744733 0.878437 0.148346
v -0.570824 0.878437 0.148346
v -0.570824 0.878437 -0.148346
v -0.744733 0.878437 -0.148346
v -0.928815 0.878437 -0.148346
vt 0.170182 0.436305
vt 0.166409 0.332840
vt 0.189239 0.333558
vt 0.189102 0.421221
vt 0.233919 0.467049
vt 0.213380 0.441375
vt 0.228217 0.336545
vt 0.250113 0.338388
vt 0.169397 0.064117
vt 0.251824 0.064851
vt 0.229665 0.065006
vt 0.191588 0.064754
vt 0.105339 0.337262
vt 0.142251 0.334148
vt 0.151979 0.420185
vt 0.258715 0.442669
vt 0.275107 0.064670
vt 0.146059 0.063491
vt 0.145705 0.173747
vt 0.169116 0.173425
vt 0.191047 0.173234
vt 0.228319 0.174013
vt 0.250122 0.174855
vt 0.108181 0.173695
vt 0.417416 0.769971
vt 0.403005 0.675481
vt 0.423816 0.673566
vt 0.432010 0.753455
vt 0.477439 0.791893
vt 0.457391 0.768856
vt 0.459320 0.672529
vt 0.479386 0.672236
vt 0.377864 0.428917
vt 0.453391 0.421212
vt 0.433127 0.423762
vt 0.398282 0.427359
vt 0.347522 0.686023
vt 0.381061 0.679356
vt 0.397945 0.757841
vt 0.499472 0.768265
vt 0.474721 0.418512
vt 0.356346 0.430601
vt 0.366841 0.531544
vt 0.388427 0.529344
vt 0.408779 0.527415
vt 0.443401 0.524159
vt 0.463631 0.522188
vt 0.332422 0.535451
vt 0.424807 0.367910
vt 0.423405 0.271842
vt 0.444020 0.273402
vt 0.441305 0.353303
vt 0.481694 0.397558
vt 0.464890 0.371885
vt 0.478766 0.277146
vt 0.498495 0.278691
vt 0.430936 0.023231
vt 0.505224 0.025638
vt 0.485250 0.023697
vt 0.451012 0.022464
vt 0.366920 0.274466
vt 0.401183 0.272050
vt 0.406846 0.353183
vt 0.506969 0.376983
vt 0.526527 0.027552
vt 0.409507 0.023907
vt 0.405077 0.124270
vt 0.426848 0.124741
vt 0.447662 0.125320
vt 0.483358 0.126393
vt 0.503992 0.127212
vt 0.370349 0.123515
vt 0.634193 0.366586
vt 0.641330 0.271690
vt 0.662111 0.274682
vt 0.653018 0.354743
vt 0.689268 0.401188
vt 0.673133 0.375636
vt 0.697409 0.281398
vt 0.717222 0.285321
vt 0.671549 0.026533
vt 0.746766 0.035635
vt 0.726510 0.033510
vt 0.691755 0.029385
vt 0.585094 0.269483
vt 0.619130 0.270414
vt 0.619214 0.349999
vt 0.714411 0.381455
vt 0.768053 0.037852
vt 0.650296 0.023574
vt 0.638693 0.124250
vt 0.660111 0.126351
vt 0.680163 0.128420
vt 0.714129 0.132944
vt 0.733959 0.135943
vt 0.604423 0.120364
vt 0.754323 0.824141
vt 0.167655 0.839669
vt 0.137259 0.840473
vt 0.753518 0.793746
vt 0.754679 0.837594
vt 0.168011 0.853122
vt 0.785074 0.836790
vt 0.168815 0.883517
vt 0.762352 0.765549
vt 0.746904 0.670544
vt 0.767564 0.669073
vt 0.776564 0.748658
vt 0.823069 0.786608
vt 0.802658 0.763623
vt 0.802547 0.667700
vt 0.822327 0.666343
vt 0.717990 0.423051
vt 0.791967 0.414567
vt 0.771887 0.415565
vt 0.737775 0.419353
vt 0.691308 0.681409
vt 0.724912 0.674001
vt 0.742395 0.753581
vt 0.845107 0.762519
vt 0.813360 0.413346
vt 0.696851 0.426857
vt 0.707147 0.526971
vt 0.728792 0.524253
vt 0.749505 0.521781
vt 0.785039 0.517621
vt 0.805609 0.515413
vt 0.672618 0.531305
vt 0.847619 0.904139
vt 0.258676 0.911722
vt 0.228163 0.912115
vt 0.847226 0.873626
vt 0.847793 0.917644
vt 0.258850 0.925227
vt 0.878306 0.917251
vt 0.259243 0.955740
vt 0.864577 0.392127
vt 0.859374 0.292796
vt 0.881111 0.292957
vt 0.881383 0.376520
vt 0.924490 0.420956
vt 0.906090 0.395065
vt 0.917965 0.295545
vt 0.938763 0.297312
vt 0.858856 0.034947
vt 0.937851 0.034799
vt 0.916608 0.035335
vt 0.880158 0.035447
vt 0.800858 0.297995
vt 0.836262 0.294547
vt 0.845667 0.377559
vt 0.949722 0.398751
vt 0.960212 0.034220
vt 0.836403 0.034465
vt 0.836813 0.140047
vt 0.859388 0.139997
vt 0.880656 0.140102
vt 0.916834 0.140323
vt 0.937981 0.140384
vt 0.800779 0.140543
vt 0.228337 0.925620
vt 0.848186 0.948157
vt 0.878132 0.903746
vt 0.258283 0.881209
vt 0.137615 0.853926
vt 0.755483 0.867989
vt 0.784718 0.823337
vt 0.166850 0.809274
vt 0.960354 0.140436
vt 0.800332 0.034863
vt 0.960931 0.298784
vt 0.865361 0.414421
vt 0.820315 0.400622
vt 0.827115 0.513013
vt 0.662258 0.430351
vt 0.843540 0.664528
vt 0.765610 0.786750
vt 0.720634 0.778390
vt 0.755047 0.139098
vt 0.615989 0.019846
vt 0.738250 0.289159
vt 0.631712 0.387903
vt 0.591859 0.368492
vt 0.525579 0.127978
vt 0.374837 0.022315
vt 0.519708 0.279990
vt 0.424934 0.389322
vt 0.381740 0.374509
vt 0.485033 0.520088
vt 0.321884 0.434428
vt 0.500730 0.671527
vt 0.420272 0.791228
vt 0.375889 0.782313
vt 0.273305 0.175712
vt 0.108516 0.063614
vt 0.273314 0.339992
vt 0.170081 0.459653
vt 0.124642 0.443492
vn -0.000000 0.000000 1.000000
vn -0.000000 0.000000 1.000000
vn -0.000000 0.000000 1.000000
vn -0.000000 0.000000 1.000000
vn 0.000000 1.000000 0.000000
vn 0.000000 1.000000 0.000000
vn 0.739369 0.673301 0.000000
vn 0.739369 0.673301 0.000000
vn 0.000000 0.000000 -1.000000
vn 0.000000 0.000000 -1.000000
vn 0.000000 0.000000 -1.000000
vn 0.000000 0.000000 -1.000000
vn 0.999898 0.014247 0.000000
vn 0.999899 0.014246 -0.000000
vn 0.996449 -0.084200 -0.000000
vn 0.996449 -0.084200 -0.000000
vn -0.999899 -0.014246 -0.000000
vn -0.999898 -0.014247 -0.000000
vn -0.996449 0.084200 0.000000
vn -0.996449 0.084200 0.000000
vn 0.000000 0.000000 -1.000000
vn 0.000000 0.000000 -1.000000
vn -0.719981 0.693994 0.000000
vn -0.719981 0.693994 0.000000
vn 0.000000 0.000000 1.000000
vn 0.000000 0.000000 1.000000
vn 0.000000 0.000000 1.000000
vn 0.000000 0.000000 1.000000
vn 0.000000 0.000000 1.000000
vn 0.999527 0.030754 0.000000
vn 0.999527 0.030754 0.000000
vn 0.000000 0.000000 -1.000000
vn 0.000000 0.000000 -1.000000
vn 0.000000 0.000000 -1.000000
vn -0.999527 -0.030754 -0.000000
vn -0.999527 -0.030754 -0.000000
vn 0.000000 0.000000 1.000000
vn 0.000000 0.000000 1.000000
vn 0.000000 0.000000 1.000000
vn 0.999429 -0.033800 0.000000
vn 0.999429 -0.033800 0.000000
vn 0.000000 0.000000 -1.000000
vn 0.000000 0.000000 -1.000000
vn 0.000000 0.000000 -1.000000
vn -0.999429 0.033800 0.000000
vn -0.999429 0.033800 0.000000
vn -0.000000 0.000000 1.000000
vn -0.000000 0.000000 1.000000
vn -0.000000 0.000000 1.000000
vn -0.000000 0.000000 1.000000
vn -0.000000 1.000000 0.000000
vn -0.000000 1.000000 0.000000
vn 0.739369 0.673300 0.000000
vn 0.739369 0.673300 0.000000
vn 0.000000 0.000000 -1.000000
vn 0.000000 0.000000 -1.000000
vn 0.000000 0.000000 -1.000000
vn 0.000000 0.000000 -1.000000
vn 0.999898 0.014247 0.000000
vn 0.999899 0.014246 0.000000
vn 0.999994 0.003373 0.000000
vn 0.999994 0.003373 0.000000
vn -0.999899 -0.014246 -0.000000
vn -0.999898 -0.014247 -0.000000
vn -0.999994 -0.003373 -0.000000
vn -0.999994 -0.003373 -0.000000
vn 0.000000 0.000000 -1.000000
vn 0.000000 0.000000 -1.000000
vn -0.719981 0.693994 0.000000
vn -0.719981 0.693994 0.000000
vn 0.000000 0.000000 1.000000
vn 0.000000 0.000000 1.000000
vn 0.000000 0.000000 1.000000
vn 0.000000 0.000000 1.000000
vn 0.000000 0.000000 1.000000
vn 0.999999 -0.001228 0.000000
vn 0.999999 -0.001228 0.000000
vn 0.000000 0.000000 -1.000000
vn 0.000000 0.000000 -1.000000
vn 0.000000 0.000000 -1.000000
vn -0.999999 0.001228 -0.000000
vn -0.999999 0.001228 -0.000000
vn 0.000000 0.000000 1.000000
vn 0.000000 0.000000 1.000000
vn 0.000000 0.000000 1.000000
vn 0.999429 -0.033800 0.000000
vn 0.999429 -0.033800 0.000000
vn 0.000000 0.000000 -1.000000
vn 0.000000 0.000000 -1.000000
vn 0.000000 0.000000 -1.000000
vn -0.999429 0.033800 0.000000
vn -0.999429 0.033800 0.000000
vn -0.000000 0.000000 1.000000
vn -0.000000 0.000000 1.000000
vn -0.000000 0.000000 1.000000
vn -0.000000 0.000000 1.000000
vn 0.000000 1.000000 0.000000
vn 0.000000 1.000000 0.000000
vn 0.739369 0.673301 0.000000
vn 0.739369 0.673301 0.000000
vn 0.000000 0.000000 -1.000000
vn 0.000000 0.000000 -1.000000
vn 0.000000 0.000000 -1.000000
vn 0.000000 0.000000 -1.000000
vn 0.999372 -0.035442 -0.000000
vn 0.999372 -0.035442 -0.000000
vn 0.999727 0.023346 0.000000
vn 0.999727 0.023346 0.000000
vn -0.999372 0.035442 0.000000
vn -0.999372 0.035442 0.000000
vn -0.999727 -0.023346 -0.000000
vn -0.999727 -0.023346 -0.000000
vn 0.000000 0.000000 -1.000000
vn 0.000000 0.000000 -1.000000
vn -0.719981 0.693993 0.000000
vn -0.719981 0.693993 0.000000
vn 0.000000 0.000000 1.000000
vn 0.000000 0.000000 1.000000
vn 0.000000 0.000000 1.000000
vn 0.000000 0.000000 1.000000
vn 0.000000 0.000000 1.000000
vn 0.999964 -0.008503 -0.000000
vn 0.999964 -0.008503 -0.000000
vn 0.000000 0.000000 -1.000000
vn 0.000000 0.000000 -1.000000
vn 0.000000 0.000000 -1.000000
vn -0.999964 0.008503 0.000000
vn -0.999964 0.008503 0.000000
vn 0.000000 0.000000 1.000000
vn 0.000000 0.000000 1.000000
vn 0.000000 0.000000 1.000000
vn 0.996476 0.083884 0.000000
vn 0.996476 0.083884 0.000000
vn 0.000000 0.000000 -1.000000
vn 0.000000 0.000000 -1.000000
vn 0.000000 0.000000 -1.000000
vn -0.996476 -0.083884 0.000000
vn -0.996476 -0.083884 0.000000
vn -0.000000 0.000000 1.000000
vn -0.000000 0.000000 1.000000
vn -0.000000 0.000000 1.000000
vn -0.000000 0.000000 1.000000
vn 0.000000 1.000000 0.000000
vn 0.000000 1.000000 0.000000
vn 0.739369 0.673300 0.000000
vn 0.739369 0.673300 0.000000
vn 0.000000 0.000000 -1.000000
vn 0.000000 0.000000 -1.000000
vn 0.000000 0.000000 -1.000000
vn 0.000000 0.000000 -1.000000
vn 0.999898 0.014247 0.000000
vn 0.999899 0.014246 0.000000
vn 0.996449 -0.084200 0.000000
vn 0.996449 -0.084200 0.000000
vn -0.999899 -0.014246 -0.000000
vn -0.999898 -0.014247 -0.000000
vn -0.996449 0.084200 0.000000
vn -0.996449 0.084200 0.000000
vn 0.000000 0.000000 -1.000000
vn 0.000000 0.000000 -1.000000
vn -0.719981 0.693994 0.000000
vn -0.719981 0.693994 0.000000
vn 0.000000 0.000000 1.000000
vn 0.000000 0.000000 1.000000
vn 0.000000 0.000000 1.000000
vn 0.000000 0.000000 1.000000
vn 0.000000 0.000000 1.000000
vn 0.999527 0.030754 0.000000
vn 0.999527 0.030754 0.000000
vn 0.000000 0.000000 -1.000000
vn 0.000000 0.000000 -1.000000
vn 0.000000 0.000000 -1.000000
vn -0.999527 -0.030754 -0.000000
vn -0.999527 -0.030754 -0.000000
vn 0.000000 0.000000 1.000000
vn 0.000000 0.000000 1.000000
vn 0.000000 0.000000 1.000000
vn 0.999429 -0.033800 0.000000
vn 0.999429 -0.033800 0.000000
vn 0.000000 0.000000 -1.000000
vn 0.000000 0.000000 -1.000000
vn 0.000000 0.000000 -1.000000
vn -0.999429 0.033800 0.000000
vn -0.999429 0.033800 0.000000
vn 0.000000 0.000000 1.000000
vn 0.000000 0.000000 1.000000
vn 0.000000 0.000000 1.000000
vn 0.000000 0.000000 1.000000
vn 0.000000 1.000000 0.000000
vn 0.000000 1.000000 0.000000
vn 0.000000 1.000000 0.000000
vn 0.000000 1.000000 0.000000
vn 1.000000 0.000000 0.000000
vn 1.000000 0.000000 0.000000
vn 1.000000 0.000000 0.000000
vn 1.000000 0.000000 0.000000
vn -1.000000 0.000000 0.000000
vn -1.000000 0.000000 0.000000
vn -1.000000 0.000000 0.000000
vn -1.000000 0.000000 0.000000
vn 0.000000 0.000000 -1.000000
vn 0.000000 0.000000 -1.000000
vn 0.000000 0.000000 -1.000000
vn 0.000000 0.000000 -1.000000
vn -0.000000 0.000000 1.000000
vn -0.000000 0.000000 1.000000
vn -0.000000 0.000000 1.000000
vn -0.000000 0.000000 1.000000
vn -0.000000 1.000000 0.000000
vn -0.000000 1.000000 0.000000
vn 0.739369 0.673300 0.000000
vn 0.739369 0.673300 0.000000
vn 0.000000 0.000000 -1.000000
vn 0.000000 0.000000 -1.000000
vn 0.000000 0.000000 -1.000000
vn 0.000000 0.000000 -1.000000
vn 0.999372 -0.035442 -0.000000
vn 0.999372 -0.035442 -0.000000
vn 0.999727 0.023346 0.000000
vn 0.999727 0.023346 0.000000
vn -0.999372 0.035442 0.000000
vn -0.999372 0.035442 0.000000
vn -0.999727 -0.023346 -0.000000
vn -0.999727 -0.023346 -0.000000
vn 0.000000 0.000000 -1.000000
vn 0.000000 0.000000 -1.000000
vn -0.719981 0.693994 0.000000
vn -0.719981 0.693994 0.000000
vn 0.000000 0.000000 1.000000
vn 0.000000 0.000000 1.000000
vn 0.000000 0.000000 1.000000
vn 0.000000 0.000000 1.000000
vn 0.000000 0.000000 1.000000
vn 0.999964 -0.008503 -0.000000
vn 0.999964 -0.008503 -0.000000
vn 0.000000 0.000000 -1.000000
vn 0.000000 0.000000 -1.000000
vn 0.000000 0.000000 -1.000000
vn -0.999964 0.008503 0.000000
vn -0.999964 0.008503 0.000000
vn 0.000000 0.000000 1.000000
vn 0.000000 0.000000 1.000000
vn 0.000000 0.000000 1.000000
vn 0.996476 0.083884 0.000000
vn 0.996476 0.083884 0.000000
vn 0.000000 0.000000 -1.000000
vn 0.000000 0.000000 -1.000000
vn 0.000000 0.000000 -1.000000
vn -0.996476 -0.083884 0.000000
vn -0.996476 -0.083884 0.000000
vn 0.000000 0.000000 1.000000
vn 0.000000 0.000000 1.000000
vn 0.000000 0.000000 1.000000
vn 0.000000 0.000000 1.000000
vn 0.000000 1.000000 0.000000
vn 0.000000 1.000000 0.000000
vn 0.000000 1.000000 0.000000
vn 0.000000 1.000000 0.000000
vn 1.000000 0.000000 0.000000
vn 1.000000 0.000000 0.000000
vn 1.000000 0.000000 0.000000
vn 1.000000 0.000000 0.000000
vn -1.000000 0.000000 0.000000
vn -1.000000 0.000000 0.000000
vn -1.000000 0.000000 0.000000
vn -1.000000 0.000000 0.000000
vn 0.000000 0.000000 -1.000000
vn 0.000000 0.000000 -1.000000
vn 0.000000 0.000000 -1.000000
vn 0.000000 0.000000 -1.000000
vn -0.000000 0.000000 1.000000
vn -0.000000 0.000000 1.000000
vn -0.000000 0.000000 1.000000
vn -0.000000 0.000000 1.000000
vn 0.000000 1.000000 0.000000
vn 0.000000 1.000000 0.000000
vn 0.739369 0.673300 0.000000
vn 0.739369 0.673300 0.000000
vn 0.000000 0.000000 -1.000000
vn 0.000000 0.000000 -1.000000
vn 0.000000 0.000000 -1.000000
vn 0.000000 0.000000 -1.000000
vn 0.999898 0.014247 0.000000
vn 0.999899 0.014247 0.000000
vn 0.999994 0.003372 0.000000
vn 0.999994 0.003372 0.000000
vn -0.999899 -0.014247 -0.000000
vn -0.999898 -0.014247 -0.000000
vn -0.999994 -0.003373 -0.000000
vn -0.999994 -0.003373 -0.000000
vn 0.000000 0.000000 -1.000000
vn 0.000000 0.000000 -1.000000
vn -0.719981 0.693994 0.000000
vn -0.719981 0.693994 0.000000
vn 0.000000 0.000000 1.000000
vn 0.000000 0.000000 1.000000
vn 0.000000 0.000000 1.000000
vn 0.000000 0.000000 1.000000
vn 0.000000 0.000000 1.000000
vn 0.999999 -0.001228 0.000000
vn 0.999999 -0.001228 0.000000
vn 0.000000 0.000000 -1.000000
vn 0.000000 0.000000 -1.000000
vn 0.000000 0.000000 -1.000000
vn -0.999999 0.001228 -0.000000
vn -0.999999 0.001228 -0.000000
vn 0.000000 0.000000 1.000000
vn 0.000000 0.000000 1.000000
vn 0.000000 0.000000 1.000000
vn 0.999429 -0.033800 0.000000
vn 0.999429 -0.033800 0.000000
vn 0.000000 0.000000 -1.000000
vn 0.000000 0.000000 -1.000000
vn 0.000000 0.000000 -1.000000
vn -0.999429 0.033800 0.000000
vn -0.999429 0.033800 0.000000
s 1
g pCube7
usemtl lambert17SG
f 12/1/1 14/2/2 15/3/3 4/4/4
s 2
f 11/197/5 12/1/6 4/4/7 6/6/8
s 3
f 16/7/9 17/8/10 11/5/11 6/6/12
s 4
f 15/3/13 16/7/14 6/6/15 4/4/16
s 5
f 18/13/17 13/14/18 3/15/19 5/198/20
s 3
f 5/16/21 11/5/11 17/8/10 18/196/22
s 2
f 3/15/23 12/1/6 11/197/5 5/198/24
s 1
f 13/14/25 14/2/2 12/1/1 3/15/26
f 19/19/27 20/20/28 14/2/2 13/14/25
f 15/3/3 14/2/2 20/20/28 21/21/29
s 4
f 21/21/30 22/22/31 16/7/14 15/3/13
s 3
f 22/22/32 23/23/33 17/8/10 16/7/9
f 18/196/22 17/8/10 23/23/33 24/194/34
s 5
f 24/24/35 19/19/36 13/14/18 18/13/17
s 1
f 1/18/37 9/9/38 20/20/28 19/19/27
f 21/21/29 20/20/28 9/9/38 2/12/39
s 4
f 2/12/40 8/11/41 22/22/31 21/21/30
s 3
f 10/10/42 23/23/33 22/22/32 8/11/43
f 24/194/34 23/23/33 10/10/42 7/17/44
s 5
f 7/195/45 1/18/46 19/19/36 24/24/35
s 6
f 36/25/47 38/26/48 39/27/49 28/28/50
s 7
f 35/192/51 36/25/52 28/28/53 30/30/54
s 8
f 40/31/55 41/32/56 35/29/57 30/30/58
s 9
f 39/27/59 40/31/60 30/30/61 28/28/62
s 10
f 42/37/63 37/38/64 27/39/65 29/193/66
s 8
f 29/40/67 35/29/57 41/32/56 42/191/68
s 7
f 27/39/69 36/25/52 35/192/51 29/193/70
s 6
f 37/38/71 38/26/48 36/25/47 27/39/72
f 43/43/73 44/44/74 38/26/48 37/38/71
f 39/27/49 38/26/48 44/44/74 45/45/75
s 9
f 45/45/76 46/46/77 40/31/60 39/27/59
s 8
f 46/46/78 47/47/79 41/32/56 40/31/55
f 42/191/68 41/32/56 47/47/79 48/189/80
s 10
f 48/48/81 43/43/82 37/38/64 42/37/63
s 6
f 25/42/83 33/33/84 44/44/74 43/43/73
f 45/45/75 44/44/74 33/33/84 26/36/85
s 9
f 26/36/86 32/35/87 46/46/77 45/45/76
s 8
f 34/34/88 47/47/79 46/46/78 32/35/89
f 48/189/80 47/47/79 34/34/88 31/41/90
s 10
f 31/190/91 25/42/92 43/43/82 48/48/81
s 11
f 60/49/93 62/50/94 63/51/95 52/52/96
s 12
f 59/187/97 60/49/98 52/52/99 54/54/100
s 13
f 64/55/101 65/56/102 59/53/103 54/54/104
s 14
f 63/51/105 64/55/106 54/54/107 52/52/108
s 15
f 66/61/109 61/62/110 51/63/111 53/188/112
s 13
f 53/64/113 59/53/103 65/56/102 66/186/114
s 12
f 51/63/115 60/49/98 59/187/97 53/188/116
s 11
f 61/62/117 62/50/94 60/49/93 51/63/118
f 67/67/119 68/68/120 62/50/94 61/62/117
f 63/51/95 62/50/94 68/68/120 69/69/121
s 14
f 69/69/122 70/70/123 64/55/106 63/51/105
s 13
f 70/70/124 71/71/125 65/56/102 64/55/101
f 66/186/114 65/56/102 71/71/125 72/184/126
s 15
f 72/72/127 67/67/128 61/62/110 66/61/109
s 11
f 49/66/129 57/57/130 68/68/120 67/67/119
f 69/69/121 68/68/120 57/57/130 50/60/131
s 14
f 50/60/132 56/59/133 70/70/123 69/69/122
s 13
f 58/58/134 71/71/125 70/70/124 56/59/135
f 72/184/126 71/71/125 58/58/134 55/65/136
s 15
f 55/185/137 49/66/138 67/67/128 72/72/127
s 16
f 84/73/139 86/74/140 87/75/141 76/76/142
s 17
f 83/182/143 84/73/144 76/76/145 78/78/146
s 18
f 88/79/147 89/80/148 83/77/149 78/78/150
s 19
f 87/75/151 88/79/152 78/78/153 76/76/154
s 20
f 90/85/155 85/86/156 75/87/157 77/183/158
s 18
f 77/88/159 83/77/149 89/80/148 90/181/160
s 17
f 75/87/161 84/73/144 83/182/143 77/183/162
s 16
f 85/86/163 86/74/140 84/73/139 75/87/164
f 91/91/165 92/92/166 86/74/140 85/86/163
f 87/75/141 86/74/140 92/92/166 93/93/167
s 19
f 93/93/168 94/94/169 88/79/152 87/75/151
s 18
f 94/94/170 95/95/171 89/80/148 88/79/147
f 90/181/160 89/80/148 95/95/171 96/179/172
s 20
f 96/96/173 91/91/174 85/86/156 90/85/155
s 16
f 73/90/175 81/81/176 92/92/166 91/91/165
f 93/93/167 92/92/166 81/81/176 74/84/177
s 19
f 74/84/178 80/83/179 94/94/169 93/93/168
s 18
f 82/82/180 95/95/171 94/94/170 80/83/181
f 96/179/172 95/95/171 82/82/180 79/89/182
s 20
f 79/180/183 73/90/184 91/91/174 96/96/173
s off
f 100/97/185 99/98/186 97/168/187 98/100/188
f 99/98/189 100/97/190 102/101/191 101/102/192
f 104/103/193 102/101/194 100/97/195 98/167/196
f 97/99/197 99/98/198 101/102/199 103/165/200
f 102/101/201 104/166/202 103/104/203 101/102/204
s 21
f 116/105/205 118/106/206 119/107/207 108/108/208
s 22
f 115/177/209 116/105/210 108/108/211 110/110/212
s 23
f 120/111/213 121/112/214 115/109/215 110/110/216
s 24
f 119/107/217 120/111/218 110/110/219 108/108/220
s 25
f 122/117/221 117/118/222 107/119/223 109/178/224
s 23
f 109/120/225 115/109/215 121/112/214 122/176/226
s 22
f 107/119/227 116/105/210 115/177/209 109/178/228
s 21
f 117/118/229 118/106/206 116/105/205 107/119/230
f 123/123/231 124/124/232 118/106/206 117/118/229
f 119/107/207 118/106/206 124/124/232 125/125/233
s 24
f 125/125/234 126/126/235 120/111/218 119/107/217
s 23
f 126/126/236 127/127/237 121/112/214 120/111/213
f 122/176/226 121/112/214 127/127/237 128/174/238
s 25
f 128/128/239 123/123/240 117/118/222 122/117/221
s 21
f 105/122/241 113/113/242 124/124/232 123/123/231
f 125/125/233 124/124/232 113/113/242 106/116/243
s 24
f 106/116/244 112/115/245 126/126/235 125/125/234
s 23
f 114/114/246 127/127/237 126/126/236 112/115/247
f 128/174/238 127/127/237 114/114/246 111/121/248
s 25
f 111/175/249 105/122/250 123/123/240 128/128/239
s off
f 132/129/251 131/130/252 129/164/253 130/132/254
f 131/130/255 132/129/256 134/133/257 133/134/258
f 136/135/259 134/133/260 132/129/261 130/163/262
f 129/131/263 131/130/264 133/134/265 135/161/266
f 134/133/267 136/162/268 135/136/269 133/134/270
s 26
f 148/137/271 150/138/272 151/139/273 140/140/274
s 27
f 147/172/275 148/137/276 140/140/277 142/142/278
s 28
f 152/143/279 153/144/280 147/141/281 142/142/282
s 29
f 151/139/283 152/143/284 142/142/285 140/140/286
s 30
f 154/149/287 149/150/288 139/151/289 141/173/290
s 28
f 141/152/291 147/141/281 153/144/280 154/171/292
s 27
f 139/151/293 148/137/276 147/172/275 141/173/294
s 26
f 149/150/295 150/138/272 148/137/271 139/151/296
f 155/155/297 156/156/298 150/138/272 149/150/295
f 151/139/273 150/138/272 156/156/298 157/157/299
s 29
f 157/157/300 158/158/301 152/143/284 151/139/283
s 28
f 158/158/302 159/159/303 153/144/280 152/143/279
f 154/171/292 153/144/280 159/159/303 160/169/304
s 30
f 160/160/305 155/155/306 149/150/288 154/149/287
s 26
f 137/154/307 145/145/308 156/156/298 155/155/297
f 157/157/299 156/156/298 145/145/308 138/148/309
s 29
f 138/148/310 144/147/311 158/158/301 157/157/300
s 28
f 146/146/312 159/159/303 158/158/302 144/147/313
f 160/169/304 159/159/303 146/146/312 143/153/314
s 30
f 143/170/315 137/154/316 155/155/306 160/160/305
